# Blender 3.3.21
# www.blender.org
mtllib door_left.mtl
o door_left
v 0.000000 0.000000 0.000000
v 0.000000 2.000000 0.000000
v 0.000000 0.000000 -0.050000
v 0.000000 2.000000 -0.050000
v 1.000000 0.000000 0.000000
v 1.000000 2.000000 0.000000
v 1.000000 0.000000 -0.050000
v 1.000000 2.000000 -0.050000
v 0.850000 0.850000 0.010000
v 0.850000 1.150000 0.010000
v 0.850000 0.850000 0.000000
v 0.850000 1.150000 0.000000
v 0.950000 0.850000 0.010000
v 0.950000 1.150000 0.010000
v 0.950000 0.850000 0.000000
v 0.950000 1.150000 0.000000
v 0.890000 1.010000 0.010000
v 0.890000 0.990000 0.010000
v 0.890000 1.010000 0.020000
v 0.890000 0.990000 0.020000
v 0.900000 1.200000 0.010000
v 0.850000 1.150000 0.010000
v 0.880866 1.196194 0.010000
v 0.864645 1.185355 0.010000
v 0.853806 1.169134 0.010000
v 0.850000 1.150000 0.000000
v 0.900000 1.200000 0.000000
v 0.853806 1.169134 0.000000
v 0.864645 1.185355 0.000000
v 0.880866 1.196194 0.000000
v 0.950000 1.150000 0.010000
v 0.900000 1.200000 0.010000
v 0.946194 1.169134 0.010000
v 0.935355 1.185355 0.010000
v 0.919134 1.196194 0.010000
v 0.900000 1.200000 0.000000
v 0.950000 1.150000 0.000000
v 0.919134 1.196194 0.000000
v 0.935355 1.185355 0.000000
v 0.946194 1.169134 0.000000
v 0.900000 0.800000 0.010000
v 0.950000 0.850000 0.010000
v 0.919134 0.803806 0.010000
v 0.935355 0.814645 0.010000
v 0.946194 0.830866 0.010000
v 0.950000 0.850000 0.000000
v 0.900000 0.800000 0.000000
v 0.946194 0.830866 0.000000
v 0.935355 0.814645 0.000000
v 0.919134 0.803806 0.000000
v 0.850000 0.850000 0.010000
v 0.900000 0.800000 0.010000
v 0.853806 0.830866 0.010000
v 0.864645 0.814645 0.010000
v 0.880866 0.803806 0.010000
v 0.900000 0.800000 0.000000
v 0.850000 0.850000 0.000000
v 0.880866 0.803806 0.000000
v 0.864645 0.814645 0.000000
v 0.853806 0.830866 0.000000
v 0.910000 0.990000 0.020000
v 0.910000 1.010000 0.020000
v 0.910000 0.990000 0.010000
v 0.910000 1.010000 0.010000
v 0.820000 1.010000 0.030000
v 0.820000 0.990000 0.030000
v 0.820000 0.990000 0.040000
v 0.820000 1.010000 0.040000
v 0.810000 1.010000 0.030000
v 0.810000 0.990000 0.030000
v 0.810000 1.010000 0.020000
v 0.810000 0.990000 0.020000
v 0.800000 0.990000 0.020000
v 0.800000 1.010000 0.020000
v 0.812500 0.990000 0.040000
v 0.800000 0.990000 0.027500
v 0.808839 0.990000 0.031161
v 0.806250 0.990000 0.038325
v 0.801675 0.990000 0.033750
v 0.800000 1.010000 0.027500
v 0.812500 1.010000 0.040000
v 0.808839 1.010000 0.031161
v 0.801675 1.010000 0.033750
v 0.806250 1.010000 0.038325
v 0.910000 0.990000 0.027500
v 0.897500 0.990000 0.040000
v 0.898820 0.990000 0.034410
v 0.908325 0.990000 0.033750
v 0.903750 0.990000 0.038325
v 0.897500 1.010000 0.040000
v 0.910000 1.010000 0.027500
v 0.898820 1.010000 0.034410
v 0.903750 1.010000 0.038325
v 0.908325 1.010000 0.033750
v 0.877500 0.990000 0.030000
v 0.890000 0.990000 0.020000
v 0.898775 0.990000 0.034387
v 0.883750 0.990000 0.028660
v 0.888325 0.990000 0.025000
v 0.890000 1.010000 0.020000
v 0.877500 1.010000 0.030000
v 0.898775 1.010000 0.034387
v 0.888325 1.010000 0.025000
v 0.883750 1.010000 0.028660
v -0.000000 0.900000 -0.012500
v -0.000000 1.100000 -0.012500
v 0.008839 0.900000 -0.008839
v 0.008839 1.100000 -0.008839
v 0.012500 0.900000 0.000000
v 0.012500 1.100000 0.000000
v 0.008839 0.900000 0.008839
v 0.008839 1.100000 0.008839
v -0.000000 0.900000 0.012500
v -0.000000 1.100000 0.012500
v -0.008839 0.900000 0.008839
v -0.008839 1.100000 0.008839
v -0.012500 0.900000 0.000000
v -0.012500 1.100000 0.000000
v -0.008839 0.900000 -0.008839
v -0.008839 1.100000 -0.008839
v -0.000000 0.200000 -0.012500
v -0.000000 0.400000 -0.012500
v 0.008839 0.200000 -0.008839
v 0.008839 0.400000 -0.008839
v 0.012500 0.200000 0.000000
v 0.012500 0.400000 0.000000
v 0.008839 0.200000 0.008839
v 0.008839 0.400000 0.008839
v -0.000000 0.200000 0.012500
v -0.000000 0.400000 0.012500
v -0.008839 0.200000 0.008839
v -0.008839 0.400000 0.008839
v -0.012500 0.200000 0.000000
v -0.012500 0.400000 0.000000
v -0.008839 0.200000 -0.008839
v -0.008839 0.400000 -0.008839
v -0.000000 1.700000 -0.012500
v -0.000000 1.900000 -0.012500
v 0.008839 1.700000 -0.008839
v 0.008839 1.900000 -0.008839
v 0.012500 1.700000 0.000000
v 0.012500 1.900000 0.000000
v 0.008839 1.700000 0.008839
v 0.008839 1.900000 0.008839
v -0.000000 1.700000 0.012500
v -0.000000 1.900000 0.012500
v -0.008839 1.700000 0.008839
v -0.008839 1.900000 0.008839
v -0.012500 1.700000 0.000000
v -0.012500 1.900000 0.000000
v -0.008839 1.700000 -0.008839
v -0.008839 1.900000 -0.008839
v -0.000000 1.400000 -0.012500
v -0.000000 1.600000 -0.012500
v 0.008839 1.400000 -0.008839
v 0.008839 1.600000 -0.008839
v 0.012500 1.400000 0.000000
v 0.012500 1.600000 0.000000
v 0.008839 1.400000 0.008839
v 0.008839 1.600000 0.008839
v -0.000000 1.400000 0.012500
v -0.000000 1.600000 0.012500
v -0.008839 1.400000 0.008839
v -0.008839 1.600000 0.008839
v -0.012500 1.400000 0.000000
v -0.012500 1.600000 0.000000
v -0.008839 1.400000 -0.008839
v -0.008839 1.600000 -0.008839
v 0.850000 0.850000 -0.059551
v 0.850000 1.150000 -0.059551
v 0.850000 0.850000 -0.049551
v 0.850000 1.150000 -0.049551
v 0.950000 0.850000 -0.059551
v 0.950000 1.150000 -0.059551
v 0.950000 0.850000 -0.049551
v 0.950000 1.150000 -0.049551
v 0.890000 1.010000 -0.059551
v 0.890000 0.990000 -0.059551
v 0.890000 1.010000 -0.069551
v 0.890000 0.990000 -0.069551
v 0.900000 1.200000 -0.059551
v 0.850000 1.150000 -0.059551
v 0.880866 1.196194 -0.059551
v 0.864645 1.185355 -0.059551
v 0.853806 1.169134 -0.059551
v 0.850000 1.150000 -0.049551
v 0.900000 1.200000 -0.049551
v 0.853806 1.169134 -0.049551
v 0.864645 1.185355 -0.049551
v 0.880866 1.196194 -0.049551
v 0.950000 1.150000 -0.059551
v 0.900000 1.200000 -0.059551
v 0.946194 1.169134 -0.059551
v 0.935355 1.185355 -0.059551
v 0.919134 1.196194 -0.059551
v 0.900000 1.200000 -0.049551
v 0.950000 1.150000 -0.049551
v 0.919134 1.196194 -0.049551
v 0.935355 1.185355 -0.049551
v 0.946194 1.169134 -0.049551
v 0.900000 0.800000 -0.059551
v 0.950000 0.850000 -0.059551
v 0.919134 0.803806 -0.059551
v 0.935355 0.814645 -0.059551
v 0.946194 0.830866 -0.059551
v 0.950000 0.850000 -0.049551
v 0.900000 0.800000 -0.049551
v 0.946194 0.830866 -0.049551
v 0.935355 0.814645 -0.049551
v 0.919134 0.803806 -0.049551
v 0.850000 0.850000 -0.059551
v 0.900000 0.800000 -0.059551
v 0.853806 0.830866 -0.059551
v 0.864645 0.814645 -0.059551
v 0.880866 0.803806 -0.059551
v 0.900000 0.800000 -0.049551
v 0.850000 0.850000 -0.049551
v 0.880866 0.803806 -0.049551
v 0.864645 0.814645 -0.049551
v 0.853806 0.830866 -0.049551
v 0.910000 0.990000 -0.069551
v 0.910000 1.010000 -0.069551
v 0.910000 0.990000 -0.059551
v 0.910000 1.010000 -0.059551
v 0.820000 1.010000 -0.079551
v 0.820000 0.990000 -0.079551
v 0.820000 0.990000 -0.089551
v 0.820000 1.010000 -0.089551
v 0.810000 1.010000 -0.079551
v 0.810000 0.990000 -0.079551
v 0.810000 1.010000 -0.069551
v 0.810000 0.990000 -0.069551
v 0.800000 0.990000 -0.069551
v 0.800000 1.010000 -0.069551
v 0.812500 0.990000 -0.089551
v 0.800000 0.990000 -0.077051
v 0.808839 0.990000 -0.080712
v 0.806250 0.990000 -0.087877
v 0.801675 0.990000 -0.083301
v 0.800000 1.010000 -0.077051
v 0.812500 1.010000 -0.089551
v 0.808839 1.010000 -0.080712
v 0.801675 1.010000 -0.083301
v 0.806250 1.010000 -0.087877
v 0.910000 0.990000 -0.077051
v 0.897500 0.990000 -0.089551
v 0.898820 0.990000 -0.083961
v 0.908325 0.990000 -0.083301
v 0.903750 0.990000 -0.087877
v 0.897500 1.010000 -0.089551
v 0.910000 1.010000 -0.077051
v 0.898820 1.010000 -0.083961
v 0.903750 1.010000 -0.087877
v 0.908325 1.010000 -0.083301
v 0.877500 0.990000 -0.079551
v 0.890000 0.990000 -0.069551
v 0.898775 0.990000 -0.083939
v 0.883750 0.990000 -0.078212
v 0.888325 0.990000 -0.074551
v 0.890000 1.010000 -0.069551
v 0.877500 1.010000 -0.079551
v 0.898775 1.010000 -0.083939
v 0.888325 1.010000 -0.074551
v 0.883750 1.010000 -0.078212
vn -1.0000 -0.0000 -0.0000
vn -0.0000 -0.0000 -1.0000
vn 1.0000 -0.0000 -0.0000
vn -0.0000 -0.0000 1.0000
vn -0.0000 -1.0000 -0.0000
vn -0.0000 1.0000 -0.0000
vn -0.4082 0.4082 0.8165
vn -0.4082 0.4082 -0.8165
vn 0.4082 0.4082 -0.8165
vn 0.4082 0.4082 0.8165
vn 0.8391 -0.0826 -0.5376
vn -0.8391 -0.0826 -0.5376
vn -0.8391 -0.0826 0.5376
vn 0.8391 -0.0826 0.5376
vn -0.2856 0.6894 -0.6657
vn -0.2856 0.6894 0.6657
vn -0.5276 0.5276 -0.6657
vn -0.5276 0.5276 0.6657
vn -0.6894 0.2856 -0.6657
vn -0.6894 0.2856 0.6657
vn -0.5327 0.6491 -0.5431
vn -0.5327 0.6491 0.5431
vn 0.2856 0.6894 0.6657
vn 0.2856 0.6894 -0.6657
vn 0.5276 0.5276 0.6657
vn 0.5276 0.5276 -0.6657
vn 0.6894 0.2856 0.6657
vn 0.6894 0.2856 -0.6657
vn 0.5327 0.6491 0.5431
vn 0.5327 0.6491 -0.5431
vn -0.7071 -0.7071 -0.0000
vn -0.3162 0.9487 -0.0000
vn -0.5774 0.5774 -0.5774
vn -0.5774 -0.5774 -0.5774
vn -0.8391 0.0826 -0.5376
vn 0.8391 0.0826 -0.5376
vn 0.8391 0.0826 0.5376
vn -0.8391 0.0826 0.5376
vn 0.2856 -0.6894 -0.6657
vn 0.2856 -0.6894 0.6657
vn 0.5276 -0.5276 -0.6657
vn 0.5276 -0.5276 0.6657
vn 0.6894 -0.2856 -0.6657
vn 0.6894 -0.2856 0.6657
vn 0.6071 0.4982 -0.6190
vn 0.6071 0.4982 0.6190
vn -0.2856 -0.6894 0.6657
vn -0.2856 -0.6894 -0.6657
vn -0.5276 -0.5276 0.6657
vn -0.5276 -0.5276 -0.6657
vn -0.6894 -0.2856 0.6657
vn -0.6894 -0.2856 -0.6657
vn -0.6071 0.4982 0.6190
vn -0.6071 0.4982 -0.6190
vn 0.5774 0.5774 -0.5774
vn 0.5774 -0.5774 -0.5774
vn 0.7071 0.7071 -0.0000
vn 0.7071 -0.7071 -0.0000
vn 0.7280 0.6789 0.0958
vn 0.7280 -0.6789 0.0958
vn -0.0000 -0.7071 0.7071
vn -0.0000 0.7071 0.7071
vn -0.0958 0.6789 0.7280
vn -0.0958 -0.6789 0.7280
vn -0.0718 0.7316 -0.6779
vn -0.0718 -0.7316 -0.6779
vn -0.0000 -0.7071 -0.7071
vn -0.0000 0.7071 -0.7071
vn 0.3015 -0.9045 -0.3015
vn 0.3015 0.9045 -0.3015
vn -0.7280 0.6789 0.0958
vn -0.7280 -0.6789 0.0958
vn -0.6557 -0.6532 0.3786
vn -0.6557 0.6532 0.3786
vn -0.3786 -0.6532 0.6557
vn -0.3786 0.6532 0.6557
vn 0.0958 0.6789 0.7280
vn 0.0958 -0.6789 0.7280
vn 0.3786 -0.6532 0.6557
vn 0.3786 0.6532 0.6557
vn 0.6557 -0.6532 0.3786
vn 0.6557 0.6532 0.3786
vn -0.2772 0.7627 -0.5844
vn -0.2772 -0.7627 -0.5844
vn -0.5165 0.7766 -0.3607
vn -0.5165 -0.7766 -0.3607
vn -0.3457 0.9312 -0.1158
vn -0.8293 -0.4849 -0.2778
vn -0.0000 -0.6303 -0.7764
vn -0.0000 0.6303 -0.7764
vn 0.5490 0.6303 -0.5490
vn 0.5490 -0.6303 -0.5490
vn 0.7764 0.6303 -0.0000
vn 0.7764 -0.6303 -0.0000
vn 0.5490 0.6303 0.5490
vn 0.5490 -0.6303 0.5490
vn -0.0000 0.6303 0.7764
vn -0.0000 -0.6303 0.7764
vn -0.5490 0.6303 0.5490
vn -0.5490 -0.6303 0.5490
vn -0.7764 0.6303 -0.0000
vn -0.7764 -0.6303 -0.0000
vn -0.5490 0.6303 -0.5490
vn -0.5490 -0.6303 -0.5490
vn -0.5774 -0.5774 0.5774
vn -0.5774 0.5774 0.5774
vn 0.5774 -0.5774 0.5774
vn 0.5774 0.5774 0.5774
vn 0.7280 -0.6789 -0.0958
vn 0.7280 0.6789 -0.0958
vn -0.0958 -0.6789 -0.7280
vn -0.0958 0.6789 -0.7280
vn -0.0718 0.7316 0.6779
vn -0.0718 -0.7316 0.6779
vn 0.3015 0.9045 0.3015
vn 0.3015 -0.9045 0.3015
vn 0.5773 0.5774 0.5774
vn -0.5774 0.5773 0.5773
vn -0.7280 0.6789 -0.0958
vn -0.6557 0.6532 -0.3786
vn -0.6557 -0.6532 -0.3786
vn -0.7280 -0.6789 -0.0958
vn -0.3786 0.6532 -0.6557
vn -0.3786 -0.6532 -0.6557
vn 0.0958 0.6789 -0.7280
vn 0.3786 0.6532 -0.6557
vn 0.3786 -0.6532 -0.6557
vn 0.0958 -0.6789 -0.7280
vn 0.6557 0.6532 -0.3786
vn 0.6557 -0.6532 -0.3786
vn -0.2772 -0.7627 0.5844
vn -0.2772 0.7627 0.5844
vn -0.5165 -0.7766 0.3607
vn -0.5165 0.7766 0.3607
vn -0.8293 -0.4849 0.2778
vn -0.3457 0.9312 0.1158
vt 0.375000 0.000000
vt 0.375000 1.000000
vt 0.125000 0.750000
vt 0.625000 0.000000
vt 0.625000 1.000000
vt 0.875000 0.750000
vt 0.375000 0.250000
vt 0.125000 0.500000
vt 0.625000 0.250000
vt 0.875000 0.500000
vt 0.375000 0.750000
vt 0.625000 0.750000
vt 0.375000 0.500000
vt 0.625000 0.500000
vt 0.375000 0.000000
vt 0.375000 1.000000
vt 0.625000 1.000000
vt 0.625000 0.000000
vt 0.375000 0.250000
vt 0.625000 0.250000
vt 0.375000 0.750000
vt 0.625000 0.750000
vt 0.375000 0.500000
vt 0.625000 0.500000
vt 0.625000 0.250000
vt 0.875000 0.500000
vt 0.375000 0.250000
vt 0.125000 0.500000
vt 0.875000 0.750000
vt 0.625000 0.000000
vt 0.125000 0.750000
vt 0.375000 0.000000
vt 0.625000 0.875000
vt 0.750000 0.750000
vt 0.625000 1.000000
vt 0.625000 0.000000
vt 0.625000 0.922835
vt 0.797835 0.750000
vt 0.625000 0.963388
vt 0.875000 0.750000
vt 0.625000 0.000000
vt 0.625000 0.990485
vt 0.625000 0.000000
vt 0.625000 0.250000
vt 0.625000 0.375000
vt 0.750000 0.500000
vt 0.625000 0.259515
vt 0.625000 0.250000
vt 0.625000 0.286612
vt 0.875000 0.500000
vt 0.625000 0.250000
vt 0.625000 0.327165
vt 0.797835 0.500000
vt 0.625000 0.750000
vt 0.625000 0.875000
vt 0.750000 0.750000
vt 0.625000 0.759515
vt 0.625000 0.750000
vt 0.625000 0.786612
vt 0.625000 0.750000
vt 0.625000 0.827165
vt 0.702165 0.750000
vt 0.625000 0.375000
vt 0.750000 0.500000
vt 0.625000 0.500000
vt 0.625000 0.422835
vt 0.702165 0.500000
vt 0.625000 0.463388
vt 0.625000 0.500000
vt 0.625000 0.490485
vt 0.625000 0.500000
vt 0.250000 0.750000
vt 0.375000 0.875000
vt 0.375000 0.750000
vt 0.297835 0.750000
vt 0.375000 0.827165
vt 0.375000 0.750000
vt 0.375000 0.786612
vt 0.375000 0.750000
vt 0.375000 0.759515
vt 0.375000 0.500000
vt 0.375000 0.375000
vt 0.250000 0.500000
vt 0.375000 0.490485
vt 0.375000 0.500000
vt 0.375000 0.463388
vt 0.375000 0.500000
vt 0.375000 0.422835
vt 0.297835 0.500000
vt 0.375000 0.000000
vt 0.375000 1.000000
vt 0.250000 0.750000
vt 0.375000 0.875000
vt 0.375000 0.000000
vt 0.375000 0.990485
vt 0.125000 0.750000
vt 0.375000 0.000000
vt 0.375000 0.963388
vt 0.202165 0.750000
vt 0.375000 0.922835
vt 0.375000 0.375000
vt 0.250000 0.500000
vt 0.375000 0.250000
vt 0.375000 0.327165
vt 0.202165 0.500000
vt 0.375000 0.286612
vt 0.125000 0.500000
vt 0.375000 0.250000
vt 0.375000 0.259515
vt 0.375000 0.250000
vt 0.375000 0.750000
vt 0.625000 0.750000
vt 0.375000 0.500000
vt 0.625000 0.500000
vt 0.625000 0.000000
vt 0.875000 0.750000
vt 0.375000 0.000000
vt 0.125000 0.750000
vt 0.375000 0.750000
vt 0.625000 0.750000
vt 0.625000 0.000000
vt 0.875000 0.750000
vt 0.375000 0.000000
vt 0.125000 0.750000
vt 0.875000 0.750000
vt 0.625000 1.000000
vt 0.625000 0.000000
vt 0.125000 0.750000
vt 0.375000 1.000000
vt 0.375000 0.000000
vt 0.375000 0.750000
vt 0.625000 0.750000
vt 0.375000 0.750000
vt 0.375000 0.750000
vt 0.154030 0.750000
vt 0.375000 0.750000
vt 0.375000 0.750000
vt 0.625000 0.750000
vt 0.625000 0.750000
vt 0.845970 0.750000
vt 0.625000 0.750000
vt 0.625000 0.750000
vt 0.375000 0.750000
vt 0.375000 0.750000
vt 0.235246 0.750000
vt 0.375000 0.750000
vt 0.375000 0.750000
vt 0.625000 0.750000
vt 0.625000 0.750000
vt 0.764754 0.750000
vt 0.625000 0.750000
vt 0.625000 0.750000
vt 0.125000 0.750000
vt 0.375000 0.000000
vt 0.125000 0.750000
vt 0.375000 0.000000
vt 0.234687 0.750000
vt 0.375000 0.000000
vt 0.375000 0.000000
vt 0.375000 0.000000
vt 0.875000 0.750000
vt 0.625000 0.000000
vt 0.875000 0.750000
vt 0.625000 0.000000
vt 0.765313 0.750000
vt 0.625000 0.000000
vt 0.625000 0.000000
vt 0.625000 0.000000
vt 1.000000 0.500000
vt 0.000000 0.500000
vt 0.750000 0.490000
vt 1.000000 1.000000
vt 0.250000 0.490000
vt 0.000000 1.000000
vt 0.875000 0.500000
vt 0.919706 0.419706
vt 0.875000 1.000000
vt 0.419706 0.419706
vt 0.750000 0.500000
vt 0.990000 0.250000
vt 0.750000 1.000000
vt 0.490000 0.250000
vt 0.625000 0.500000
vt 0.919706 0.080294
vt 0.625000 1.000000
vt 0.419706 0.080294
vt 0.500000 0.500000
vt 0.750000 0.010000
vt 0.500000 1.000000
vt 0.250000 0.010000
vt 0.375000 0.500000
vt 0.580294 0.080294
vt 0.375000 1.000000
vt 0.080294 0.080294
vt 0.250000 0.500000
vt 0.510000 0.250000
vt 0.010000 0.250000
vt 0.250000 1.000000
vt 0.125000 0.500000
vt 0.580294 0.419706
vt 0.080294 0.419706
vt 0.125000 1.000000
vt 1.000000 0.500000
vt 0.000000 0.500000
vt 0.750000 0.490000
vt 1.000000 1.000000
vt 0.250000 0.490000
vt 0.000000 1.000000
vt 0.875000 0.500000
vt 0.919706 0.419706
vt 0.875000 1.000000
vt 0.419706 0.419706
vt 0.750000 0.500000
vt 0.990000 0.250000
vt 0.750000 1.000000
vt 0.490000 0.250000
vt 0.625000 0.500000
vt 0.919706 0.080294
vt 0.625000 1.000000
vt 0.419706 0.080294
vt 0.500000 0.500000
vt 0.750000 0.010000
vt 0.500000 1.000000
vt 0.250000 0.010000
vt 0.375000 0.500000
vt 0.580294 0.080294
vt 0.375000 1.000000
vt 0.080294 0.080294
vt 0.250000 0.500000
vt 0.510000 0.250000
vt 0.010000 0.250000
vt 0.250000 1.000000
vt 0.125000 0.500000
vt 0.580294 0.419706
vt 0.080294 0.419706
vt 0.125000 1.000000
vt 1.000000 0.500000
vt 0.000000 0.500000
vt 0.750000 0.490000
vt 1.000000 1.000000
vt 0.250000 0.490000
vt 0.000000 1.000000
vt 0.875000 0.500000
vt 0.919706 0.419706
vt 0.875000 1.000000
vt 0.419706 0.419706
vt 0.750000 0.500000
vt 0.990000 0.250000
vt 0.750000 1.000000
vt 0.490000 0.250000
vt 0.625000 0.500000
vt 0.919706 0.080294
vt 0.625000 1.000000
vt 0.419706 0.080294
vt 0.500000 0.500000
vt 0.750000 0.010000
vt 0.500000 1.000000
vt 0.250000 0.010000
vt 0.375000 0.500000
vt 0.580294 0.080294
vt 0.375000 1.000000
vt 0.080294 0.080294
vt 0.250000 0.500000
vt 0.510000 0.250000
vt 0.010000 0.250000
vt 0.250000 1.000000
vt 0.125000 0.500000
vt 0.580294 0.419706
vt 0.080294 0.419706
vt 0.125000 1.000000
vt 1.000000 0.500000
vt 0.000000 0.500000
vt 0.750000 0.490000
vt 1.000000 1.000000
vt 0.250000 0.490000
vt 0.000000 1.000000
vt 0.875000 0.500000
vt 0.919706 0.419706
vt 0.875000 1.000000
vt 0.419706 0.419706
vt 0.750000 0.500000
vt 0.990000 0.250000
vt 0.750000 1.000000
vt 0.490000 0.250000
vt 0.625000 0.500000
vt 0.919706 0.080294
vt 0.625000 1.000000
vt 0.419706 0.080294
vt 0.500000 0.500000
vt 0.750000 0.010000
vt 0.500000 1.000000
vt 0.250000 0.010000
vt 0.375000 0.500000
vt 0.580294 0.080294
vt 0.375000 1.000000
vt 0.080294 0.080294
vt 0.250000 0.500000
vt 0.510000 0.250000
vt 0.010000 0.250000
vt 0.250000 1.000000
vt 0.125000 0.500000
vt 0.580294 0.419706
vt 0.080294 0.419706
vt 0.125000 1.000000
vt 0.375000 0.000000
vt 0.375000 1.000000
vt 0.625000 1.000000
vt 0.625000 0.000000
vt 0.375000 0.250000
vt 0.625000 0.250000
vt 0.375000 0.750000
vt 0.625000 0.750000
vt 0.375000 0.500000
vt 0.625000 0.500000
vt 0.625000 0.250000
vt 0.875000 0.500000
vt 0.375000 0.250000
vt 0.125000 0.500000
vt 0.875000 0.750000
vt 0.625000 0.000000
vt 0.125000 0.750000
vt 0.375000 0.000000
vt 0.625000 0.875000
vt 0.750000 0.750000
vt 0.625000 1.000000
vt 0.625000 0.000000
vt 0.625000 0.922835
vt 0.797835 0.750000
vt 0.625000 0.963388
vt 0.875000 0.750000
vt 0.625000 0.000000
vt 0.625000 0.990485
vt 0.625000 0.000000
vt 0.625000 0.250000
vt 0.625000 0.375000
vt 0.750000 0.500000
vt 0.625000 0.259515
vt 0.625000 0.250000
vt 0.625000 0.286612
vt 0.875000 0.500000
vt 0.625000 0.250000
vt 0.625000 0.327165
vt 0.797835 0.500000
vt 0.625000 0.750000
vt 0.625000 0.875000
vt 0.750000 0.750000
vt 0.625000 0.759515
vt 0.625000 0.750000
vt 0.625000 0.786612
vt 0.625000 0.750000
vt 0.625000 0.827165
vt 0.702165 0.750000
vt 0.625000 0.375000
vt 0.750000 0.500000
vt 0.625000 0.500000
vt 0.625000 0.422835
vt 0.702165 0.500000
vt 0.625000 0.463388
vt 0.625000 0.500000
vt 0.625000 0.490485
vt 0.625000 0.500000
vt 0.250000 0.750000
vt 0.375000 0.875000
vt 0.375000 0.750000
vt 0.297835 0.750000
vt 0.375000 0.827165
vt 0.375000 0.750000
vt 0.375000 0.786612
vt 0.375000 0.750000
vt 0.375000 0.759515
vt 0.375000 0.500000
vt 0.375000 0.375000
vt 0.250000 0.500000
vt 0.375000 0.490485
vt 0.375000 0.500000
vt 0.375000 0.463388
vt 0.375000 0.500000
vt 0.375000 0.422835
vt 0.297835 0.500000
vt 0.375000 0.000000
vt 0.375000 1.000000
vt 0.250000 0.750000
vt 0.375000 0.875000
vt 0.375000 0.000000
vt 0.375000 0.990485
vt 0.125000 0.750000
vt 0.375000 0.000000
vt 0.375000 0.963388
vt 0.202165 0.750000
vt 0.375000 0.922835
vt 0.375000 0.375000
vt 0.250000 0.500000
vt 0.375000 0.250000
vt 0.375000 0.327165
vt 0.202165 0.500000
vt 0.375000 0.286612
vt 0.125000 0.500000
vt 0.375000 0.250000
vt 0.375000 0.259515
vt 0.375000 0.250000
vt 0.375000 0.750000
vt 0.625000 0.750000
vt 0.375000 0.500000
vt 0.625000 0.500000
vt 0.625000 0.000000
vt 0.875000 0.750000
vt 0.375000 0.000000
vt 0.125000 0.750000
vt 0.375000 0.750000
vt 0.625000 0.750000
vt 0.625000 0.000000
vt 0.875000 0.750000
vt 0.375000 0.000000
vt 0.125000 0.750000
vt 0.875000 0.750000
vt 0.625000 1.000000
vt 0.625000 0.000000
vt 0.125000 0.750000
vt 0.375000 1.000000
vt 0.375000 0.000000
vt 0.375000 0.750000
vt 0.625000 0.750000
vt 0.375000 0.750000
vt 0.375000 0.750000
vt 0.154030 0.750000
vt 0.375000 0.750000
vt 0.375000 0.750000
vt 0.625000 0.750000
vt 0.625000 0.750000
vt 0.845970 0.750000
vt 0.625000 0.750000
vt 0.625000 0.750000
vt 0.375000 0.750000
vt 0.375000 0.750000
vt 0.235246 0.750000
vt 0.375000 0.750000
vt 0.375000 0.750000
vt 0.625000 0.750000
vt 0.625000 0.750000
vt 0.764754 0.750000
vt 0.625000 0.750000
vt 0.625000 0.750000
vt 0.125000 0.750000
vt 0.375000 0.000000
vt 0.125000 0.750000
vt 0.375000 0.000000
vt 0.234687 0.750000
vt 0.375000 0.000000
vt 0.375000 0.000000
vt 0.375000 0.000000
vt 0.875000 0.750000
vt 0.625000 0.000000
vt 0.875000 0.750000
vt 0.625000 0.000000
vt 0.765313 0.750000
vt 0.625000 0.000000
vt 0.625000 0.000000
vt 0.625000 0.000000
s 0
usemtl door
f 1/1/1 2/4/1 4/9/1 3/7/1
f 3/7/2 4/9/2 8/14/2 7/13/2
f 7/13/3 8/14/3 6/12/3 5/11/3
f 5/11/4 6/12/4 2/5/4 1/2/4
f 3/8/5 7/13/5 5/11/5 1/3/5
f 8/14/6 4/10/6 2/6/6 6/12/6
s 1
usemtl handle
f 9/15/7 10/18/7 12/20/8 11/19/8
s 0
f 11/19/2 12/20/2 16/24/2 15/23/2
s 1
f 15/23/9 16/24/9 14/22/10 13/21/10
s 0
f 13/21/4 14/22/4 10/17/4 9/16/4
f 9/15/6 11/19/6 57/103/6 51/90/6
f 14/22/6 16/24/6 37/65/6 31/54/6
f 10/17/4 14/22/4 31/54/4 33/57/4 34/59/4 35/61/4 32/55/4 21/33/4 23/37/4 24/39/4 25/42/4 22/35/4
f 11/19/2 15/23/2 46/81/2 48/84/2 49/86/2 50/88/2 47/82/2 56/101/2 58/104/2 59/106/2 60/109/2 57/103/2
s 1
f 36/64/11 27/46/12 21/34/13 32/56/14
s 0
f 16/24/2 12/20/2 26/44/2 28/47/2 29/49/2 30/52/2 27/45/2 36/63/2 38/66/2 39/68/2 40/70/2 37/65/2
s 1
f 21/34/13 27/46/12 30/53/15 23/38/16
f 23/38/16 30/53/15 29/50/17 24/40/18
f 24/41/18 29/51/17 28/48/19 25/43/20
f 25/43/20 28/48/19 26/44/21 22/36/22
f 36/64/11 32/56/14 35/62/23 38/67/24
f 38/67/24 35/62/23 34/60/25 39/69/26
f 39/69/26 34/60/25 33/58/27 40/71/28
f 40/71/28 33/58/27 31/54/29 37/65/30
s 0
f 12/20/6 10/18/6 22/36/6 26/44/6
s 1
f 20/32/31 19/30/32 17/25/33 18/27/34
f 56/102/35 47/83/36 41/72/37 52/92/38
s 0
f 15/23/6 13/21/6 42/74/6 46/81/6
s 1
f 41/72/37 47/83/36 50/89/39 43/75/40
f 43/75/40 50/89/39 49/87/41 44/77/42
f 44/77/42 49/87/41 48/85/43 45/79/44
f 45/79/44 48/85/43 46/81/45 42/74/46
f 56/102/35 52/92/38 55/99/47 58/105/48
f 58/105/48 55/99/47 54/96/49 59/107/50
f 59/108/50 54/97/49 53/94/51 60/110/52
f 60/110/52 53/94/51 51/90/53 57/103/54
s 0
f 13/21/4 9/16/4 51/91/4 53/95/4 54/98/4 55/100/4 52/93/4 41/73/4 43/76/4 44/78/4 45/80/4 42/74/4
s 1
f 18/27/34 17/25/33 64/114/55 63/113/56
f 63/113/56 64/114/55 62/112/57 61/111/58
f 61/111/58 62/112/57 91/149/59 85/143/60
s 0
f 18/28/5 63/113/5 61/111/5 20/31/5
f 64/114/6 17/26/6 19/29/6 62/112/6
s 1
f 67/119/61 68/120/62 81/139/63 75/133/64
f 101/164/65 95/154/66 66/117/67 65/115/68
s 0
f 90/148/6 92/150/6 102/165/6 101/163/6 65/116/6 68/120/6
f 95/153/5 97/157/5 87/145/5 86/144/5 67/119/5 66/118/5
f 62/112/6 19/29/6 100/161/6 102/165/6 92/150/6 91/149/6
f 20/31/5 61/111/5 85/143/5 87/145/5 97/157/5 96/155/5
f 80/138/6 82/140/6 69/122/6 71/125/6 74/132/6
s 1
f 65/115/68 66/117/67 70/123/69 69/121/70
s 0
f 70/124/5 77/135/5 76/134/5 73/131/5 72/128/5
s 1
f 73/131/34 74/132/33 71/126/55 72/129/56
f 69/121/70 70/123/69 72/130/56 71/127/55
s 0
f 68/120/6 65/116/6 69/122/6 82/140/6 81/139/6
f 66/118/5 67/119/5 75/133/5 77/135/5 70/124/5
f 75/133/5 78/136/5 77/135/5
f 78/136/5 79/137/5 77/135/5
f 79/137/5 76/134/5 77/135/5
f 80/138/6 83/141/6 82/140/6
f 83/141/6 84/142/6 82/140/6
f 84/142/6 81/139/6 82/140/6
s 1
f 80/138/71 76/134/72 79/137/73 83/141/74
f 83/141/74 79/137/73 78/136/75 84/142/76
f 84/142/76 78/136/75 75/133/64 81/139/63
f 76/134/72 80/138/71 74/132/33 73/131/34
s 0
f 85/143/5 88/146/5 87/145/5
f 88/146/5 89/147/5 87/145/5
f 89/147/5 86/144/5 87/145/5
f 90/148/6 93/151/6 92/150/6
f 93/151/6 94/152/6 92/150/6
f 94/152/6 91/149/6 92/150/6
s 1
f 90/148/77 86/144/78 89/147/79 93/151/80
f 93/151/80 89/147/79 88/146/81 94/152/82
f 94/152/82 88/146/81 85/143/60 91/149/59
f 86/144/78 90/148/77 68/120/62 67/119/61
s 0
f 95/154/5 98/159/5 97/158/5
f 98/159/5 99/160/5 97/158/5
f 99/160/5 96/156/5 97/158/5
f 100/162/6 103/167/6 102/166/6
f 103/167/6 104/168/6 102/166/6
f 104/168/6 101/164/6 102/166/6
s 1
f 95/154/66 101/164/65 104/168/83 98/159/84
f 98/159/84 104/168/83 103/167/85 99/160/86
f 99/160/86 103/167/85 100/162/87 96/156/88
f 19/30/32 20/32/31 96/156/88 100/162/87
f 105/169/89 106/172/90 108/177/91 107/175/92
f 107/175/92 108/177/91 110/181/93 109/179/94
f 109/179/94 110/181/93 112/185/95 111/183/96
f 111/183/96 112/185/95 114/189/97 113/187/98
f 113/187/98 114/189/97 116/193/99 115/191/100
f 115/191/100 116/193/99 118/198/101 117/195/102
s 0
f 108/178/6 106/173/6 120/201/6 118/197/6 116/194/6 114/190/6 112/186/6 110/182/6
s 1
f 117/195/102 118/198/101 120/202/103 119/199/104
f 119/199/104 120/202/103 106/174/90 105/170/89
s 0
f 105/171/5 107/176/5 109/180/5 111/184/5 113/188/5 115/192/5 117/196/5 119/200/5
s 1
f 121/203/89 122/206/90 124/211/91 123/209/92
f 123/209/92 124/211/91 126/215/93 125/213/94
f 125/213/94 126/215/93 128/219/95 127/217/96
f 127/217/96 128/219/95 130/223/97 129/221/98
f 129/221/98 130/223/97 132/227/99 131/225/100
f 131/225/100 132/227/99 134/232/101 133/229/102
s 0
f 124/212/6 122/207/6 136/235/6 134/231/6 132/228/6 130/224/6 128/220/6 126/216/6
s 1
f 133/229/102 134/232/101 136/236/103 135/233/104
f 135/233/104 136/236/103 122/208/90 121/204/89
s 0
f 121/205/5 123/210/5 125/214/5 127/218/5 129/222/5 131/226/5 133/230/5 135/234/5
s 1
f 137/237/89 138/240/90 140/245/91 139/243/92
f 139/243/92 140/245/91 142/249/93 141/247/94
f 141/247/94 142/249/93 144/253/95 143/251/96
f 143/251/96 144/253/95 146/257/97 145/255/98
f 145/255/98 146/257/97 148/261/99 147/259/100
f 147/259/100 148/261/99 150/266/101 149/263/102
s 0
f 140/246/6 138/241/6 152/269/6 150/265/6 148/262/6 146/258/6 144/254/6 142/250/6
s 1
f 149/263/102 150/266/101 152/270/103 151/267/104
f 151/267/104 152/270/103 138/242/90 137/238/89
s 0
f 137/239/5 139/244/5 141/248/5 143/252/5 145/256/5 147/260/5 149/264/5 151/268/5
s 1
f 153/271/89 154/274/90 156/279/91 155/277/92
f 155/277/92 156/279/91 158/283/93 157/281/94
f 157/281/94 158/283/93 160/287/95 159/285/96
f 159/285/96 160/287/95 162/291/97 161/289/98
f 161/289/98 162/291/97 164/295/99 163/293/100
f 163/293/100 164/295/99 166/300/101 165/297/102
s 0
f 156/280/6 154/275/6 168/303/6 166/299/6 164/296/6 162/292/6 160/288/6 158/284/6
s 1
f 165/297/102 166/300/101 168/304/103 167/301/104
f 167/301/104 168/304/103 154/276/90 153/272/89
s 0
f 153/273/5 155/278/5 157/282/5 159/286/5 161/290/5 163/294/5 165/298/5 167/302/5
s 1
f 169/305/8 171/309/7 172/310/7 170/308/8
s 0
f 171/309/4 175/313/4 176/314/4 172/310/4
s 1
f 175/313/10 173/311/9 174/312/9 176/314/10
s 0
f 173/311/2 169/306/2 170/307/2 174/312/2
f 169/305/6 211/380/6 217/393/6 171/309/6
f 174/312/6 191/344/6 197/355/6 176/314/6
f 170/307/2 182/325/2 185/332/2 184/329/2 183/327/2 181/323/2 192/345/2 195/351/2 194/349/2 193/347/2 191/344/2 174/312/2
f 171/309/4 217/393/4 220/399/4 219/396/4 218/394/4 216/391/4 207/372/4 210/378/4 209/376/4 208/374/4 206/371/4 175/313/4
s 1
f 196/354/14 192/346/11 181/324/12 187/336/13
s 0
f 176/314/4 197/355/4 200/360/4 199/358/4 198/356/4 196/353/4 187/335/4 190/342/4 189/339/4 188/337/4 186/334/4 172/310/4
s 1
f 181/324/12 183/328/15 190/343/16 187/336/13
f 183/328/15 184/330/17 189/340/18 190/343/16
f 184/331/17 185/333/19 188/338/20 189/341/18
f 185/333/19 182/326/21 186/334/22 188/338/20
f 196/354/14 198/357/23 195/352/24 192/346/11
f 198/357/23 199/359/25 194/350/26 195/352/24
f 199/359/25 200/361/27 193/348/28 194/350/26
f 200/361/27 197/355/29 191/344/30 193/348/28
s 0
f 172/310/6 186/334/6 182/326/6 170/308/6
s 1
f 180/322/31 178/317/105 177/315/106 179/320/32
f 216/392/38 212/382/35 201/362/36 207/373/37
s 0
f 175/313/6 206/371/6 202/364/6 173/311/6
s 1
f 201/362/36 203/365/39 210/379/40 207/373/37
f 203/365/39 204/367/41 209/377/42 210/379/40
f 204/367/41 205/369/43 208/375/44 209/377/42
f 205/369/43 202/364/45 206/371/46 208/375/44
f 216/392/38 218/395/47 215/389/48 212/382/35
f 218/395/47 219/397/49 214/386/50 215/389/48
f 219/398/49 220/400/51 213/384/52 214/387/50
f 220/400/51 217/393/53 211/380/54 213/384/52
s 0
f 173/311/2 202/364/2 205/370/2 204/368/2 203/366/2 201/363/2 212/383/2 215/390/2 214/388/2 213/385/2 211/381/2 169/306/2
s 1
f 178/317/105 223/403/107 224/404/108 177/315/106
f 223/403/107 221/401/58 222/402/57 224/404/108
f 221/401/58 245/433/109 251/439/110 222/402/57
s 0
f 178/318/5 180/321/5 221/401/5 223/403/5
f 224/404/6 222/402/6 179/319/6 177/316/6
s 1
f 227/409/67 235/423/111 241/429/112 228/410/68
f 261/454/113 225/405/62 226/407/61 255/444/114
s 0
f 250/438/6 228/410/6 225/406/6 261/453/6 262/455/6 252/440/6
f 255/443/5 226/408/5 227/409/5 246/434/5 247/435/5 257/447/5
f 222/402/6 251/439/6 252/440/6 262/455/6 260/451/6 179/319/6
f 180/321/5 256/445/5 257/447/5 247/435/5 245/433/5 221/401/5
f 240/428/6 234/422/6 231/415/6 229/412/6 242/430/6
s 1
f 225/405/62 229/411/115 230/413/116 226/407/61
s 0
f 230/414/5 232/418/5 233/421/5 236/424/5 237/425/5
s 1
f 233/421/105 232/419/107 231/416/117 234/422/118
f 229/411/115 231/417/117 232/420/107 230/413/116
s 0
f 228/410/6 241/429/6 242/430/6 229/412/6 225/406/6
f 226/408/5 230/414/5 237/425/5 235/423/5 227/409/5
f 235/423/5 237/425/5 238/426/5
f 238/426/5 237/425/5 239/427/5
f 239/427/5 237/425/5 236/424/5
f 240/428/6 242/430/6 243/431/6
f 243/431/6 242/430/6 244/432/6
f 244/432/6 242/430/6 241/429/6
s 1
f 240/428/119 243/431/120 239/427/121 236/424/122
f 243/431/120 244/432/123 238/426/124 239/427/121
f 244/432/123 241/429/112 235/423/111 238/426/124
f 236/424/122 233/421/105 234/422/118 240/428/119
s 0
f 245/433/5 247/435/5 248/436/5
f 248/436/5 247/435/5 249/437/5
f 249/437/5 247/435/5 246/434/5
f 250/438/6 252/440/6 253/441/6
f 253/441/6 252/440/6 254/442/6
f 254/442/6 252/440/6 251/439/6
s 1
f 250/438/125 253/441/126 249/437/127 246/434/128
f 253/441/126 254/442/129 248/436/130 249/437/127
f 254/442/129 251/439/110 245/433/109 248/436/130
f 246/434/128 227/409/67 228/410/68 250/438/125
s 0
f 255/444/5 257/448/5 258/449/5
f 258/449/5 257/448/5 259/450/5
f 259/450/5 257/448/5 256/446/5
f 260/452/6 262/456/6 263/457/6
f 263/457/6 262/456/6 264/458/6
f 264/458/6 262/456/6 261/454/6
s 1
f 255/444/114 258/449/131 264/458/132 261/454/113
f 258/449/131 259/450/133 263/457/134 264/458/132
f 259/450/133 256/446/135 260/452/136 263/457/134
f 179/320/32 260/452/136 256/446/135 180/322/31
