# Blender 3.3.21
# www.blender.org
mtllib door_right.mtl
o door_right
v -0.000000 0.000000 0.000000
v -0.000000 2.000000 0.000000
v -0.000000 0.000000 -0.050000
v -0.000000 2.000000 -0.050000
v -1.000000 0.000000 0.000000
v -1.000000 2.000000 0.000000
v -1.000000 0.000000 -0.050000
v -1.000000 2.000000 -0.050000
v -0.850000 0.850000 0.010000
v -0.850000 1.150000 0.010000
v -0.850000 0.850000 0.000000
v -0.850000 1.150000 0.000000
v -0.950000 0.850000 0.010000
v -0.950000 1.150000 0.010000
v -0.950000 0.850000 0.000000
v -0.950000 1.150000 0.000000
v -0.890000 1.010000 0.010000
v -0.890000 0.990000 0.010000
v -0.890000 1.010000 0.020000
v -0.890000 0.990000 0.020000
v -0.900000 1.200000 0.010000
v -0.850000 1.150000 0.010000
v -0.880866 1.196194 0.010000
v -0.864645 1.185355 0.010000
v -0.853806 1.169134 0.010000
v -0.850000 1.150000 0.000000
v -0.900000 1.200000 0.000000
v -0.853806 1.169134 0.000000
v -0.864645 1.185355 0.000000
v -0.880866 1.196194 0.000000
v -0.950000 1.150000 0.010000
v -0.900000 1.200000 0.010000
v -0.946194 1.169134 0.010000
v -0.935355 1.185355 0.010000
v -0.919134 1.196194 0.010000
v -0.900000 1.200000 0.000000
v -0.950000 1.150000 0.000000
v -0.919134 1.196194 0.000000
v -0.935355 1.185355 0.000000
v -0.946194 1.169134 0.000000
v -0.900000 0.800000 0.010000
v -0.950000 0.850000 0.010000
v -0.919134 0.803806 0.010000
v -0.935355 0.814645 0.010000
v -0.946194 0.830866 0.010000
v -0.950000 0.850000 0.000000
v -0.900000 0.800000 0.000000
v -0.946194 0.830866 0.000000
v -0.935355 0.814645 0.000000
v -0.919134 0.803806 0.000000
v -0.850000 0.850000 0.010000
v -0.900000 0.800000 0.010000
v -0.853806 0.830866 0.010000
v -0.864645 0.814645 0.010000
v -0.880866 0.803806 0.010000
v -0.900000 0.800000 0.000000
v -0.850000 0.850000 0.000000
v -0.880866 0.803806 0.000000
v -0.864645 0.814645 0.000000
v -0.853806 0.830866 0.000000
v -0.910000 0.990000 0.020000
v -0.910000 1.010000 0.020000
v -0.910000 0.990000 0.010000
v -0.910000 1.010000 0.010000
v -0.820000 1.010000 0.030000
v -0.820000 0.990000 0.030000
v -0.820000 0.990000 0.040000
v -0.820000 1.010000 0.040000
v -0.810000 1.010000 0.030000
v -0.810000 0.990000 0.030000
v -0.810000 1.010000 0.020000
v -0.810000 0.990000 0.020000
v -0.800000 0.990000 0.020000
v -0.800000 1.010000 0.020000
v -0.812500 0.990000 0.040000
v -0.800000 0.990000 0.027500
v -0.808839 0.990000 0.031161
v -0.806250 0.990000 0.038325
v -0.801675 0.990000 0.033750
v -0.800000 1.010000 0.027500
v -0.812500 1.010000 0.040000
v -0.808839 1.010000 0.031161
v -0.801675 1.010000 0.033750
v -0.806250 1.010000 0.038325
v -0.910000 0.990000 0.027500
v -0.897500 0.990000 0.040000
v -0.898820 0.990000 0.034410
v -0.908325 0.990000 0.033750
v -0.903750 0.990000 0.038325
v -0.897500 1.010000 0.040000
v -0.910000 1.010000 0.027500
v -0.898820 1.010000 0.034410
v -0.903750 1.010000 0.038325
v -0.908325 1.010000 0.033750
v -0.877500 0.990000 0.030000
v -0.890000 0.990000 0.020000
v -0.898775 0.990000 0.034387
v -0.883750 0.990000 0.028660
v -0.888325 0.990000 0.025000
v -0.890000 1.010000 0.020000
v -0.877500 1.010000 0.030000
v -0.898775 1.010000 0.034387
v -0.888325 1.010000 0.025000
v -0.883750 1.010000 0.028660
v 0.000000 0.900000 -0.012500
v 0.000000 1.100000 -0.012500
v -0.008839 0.900000 -0.008839
v -0.008839 1.100000 -0.008839
v -0.012500 0.900000 0.000000
v -0.012500 1.100000 0.000000
v -0.008839 0.900000 0.008839
v -0.008839 1.100000 0.008839
v 0.000000 0.900000 0.012500
v 0.000000 1.100000 0.012500
v 0.008839 0.900000 0.008839
v 0.008839 1.100000 0.008839
v 0.012500 0.900000 0.000000
v 0.012500 1.100000 0.000000
v 0.008839 0.900000 -0.008839
v 0.008839 1.100000 -0.008839
v 0.000000 0.200000 -0.012500
v 0.000000 0.400000 -0.012500
v -0.008839 0.200000 -0.008839
v -0.008839 0.400000 -0.008839
v -0.012500 0.200000 0.000000
v -0.012500 0.400000 0.000000
v -0.008839 0.200000 0.008839
v -0.008839 0.400000 0.008839
v 0.000000 0.200000 0.012500
v 0.000000 0.400000 0.012500
v 0.008839 0.200000 0.008839
v 0.008839 0.400000 0.008839
v 0.012500 0.200000 0.000000
v 0.012500 0.400000 0.000000
v 0.008839 0.200000 -0.008839
v 0.008839 0.400000 -0.008839
v 0.000000 1.700000 -0.012500
v 0.000000 1.900000 -0.012500
v -0.008839 1.700000 -0.008839
v -0.008839 1.900000 -0.008839
v -0.012500 1.700000 0.000000
v -0.012500 1.900000 0.000000
v -0.008839 1.700000 0.008839
v -0.008839 1.900000 0.008839
v 0.000000 1.700000 0.012500
v 0.000000 1.900000 0.012500
v 0.008839 1.700000 0.008839
v 0.008839 1.900000 0.008839
v 0.012500 1.700000 0.000000
v 0.012500 1.900000 0.000000
v 0.008839 1.700000 -0.008839
v 0.008839 1.900000 -0.008839
v 0.000000 1.400000 -0.012500
v 0.000000 1.600000 -0.012500
v -0.008839 1.400000 -0.008839
v -0.008839 1.600000 -0.008839
v -0.012500 1.400000 0.000000
v -0.012500 1.600000 0.000000
v -0.008839 1.400000 0.008839
v -0.008839 1.600000 0.008839
v 0.000000 1.400000 0.012500
v 0.000000 1.600000 0.012500
v 0.008839 1.400000 0.008839
v 0.008839 1.600000 0.008839
v 0.012500 1.400000 0.000000
v 0.012500 1.600000 0.000000
v 0.008839 1.400000 -0.008839
v 0.008839 1.600000 -0.008839
v -0.850000 0.850000 -0.059551
v -0.850000 1.150000 -0.059551
v -0.850000 0.850000 -0.049551
v -0.850000 1.150000 -0.049551
v -0.950000 0.850000 -0.059551
v -0.950000 1.150000 -0.059551
v -0.950000 0.850000 -0.049551
v -0.950000 1.150000 -0.049551
v -0.890000 1.010000 -0.059551
v -0.890000 0.990000 -0.059551
v -0.890000 1.010000 -0.069551
v -0.890000 0.990000 -0.069551
v -0.900000 1.200000 -0.059551
v -0.850000 1.150000 -0.059551
v -0.880866 1.196194 -0.059551
v -0.864645 1.185355 -0.059551
v -0.853806 1.169134 -0.059551
v -0.850000 1.150000 -0.049551
v -0.900000 1.200000 -0.049551
v -0.853806 1.169134 -0.049551
v -0.864645 1.185355 -0.049551
v -0.880866 1.196194 -0.049551
v -0.950000 1.150000 -0.059551
v -0.900000 1.200000 -0.059551
v -0.946194 1.169134 -0.059551
v -0.935355 1.185355 -0.059551
v -0.919134 1.196194 -0.059551
v -0.900000 1.200000 -0.049551
v -0.950000 1.150000 -0.049551
v -0.919134 1.196194 -0.049551
v -0.935355 1.185355 -0.049551
v -0.946194 1.169134 -0.049551
v -0.900000 0.800000 -0.059551
v -0.950000 0.850000 -0.059551
v -0.919134 0.803806 -0.059551
v -0.935355 0.814645 -0.059551
v -0.946194 0.830866 -0.059551
v -0.950000 0.850000 -0.049551
v -0.900000 0.800000 -0.049551
v -0.946194 0.830866 -0.049551
v -0.935355 0.814645 -0.049551
v -0.919134 0.803806 -0.049551
v -0.850000 0.850000 -0.059551
v -0.900000 0.800000 -0.059551
v -0.853806 0.830866 -0.059551
v -0.864645 0.814645 -0.059551
v -0.880866 0.803806 -0.059551
v -0.900000 0.800000 -0.049551
v -0.850000 0.850000 -0.049551
v -0.880866 0.803806 -0.049551
v -0.864645 0.814645 -0.049551
v -0.853806 0.830866 -0.049551
v -0.910000 0.990000 -0.069551
v -0.910000 1.010000 -0.069551
v -0.910000 0.990000 -0.059551
v -0.910000 1.010000 -0.059551
v -0.820000 1.010000 -0.079551
v -0.820000 0.990000 -0.079551
v -0.820000 0.990000 -0.089551
v -0.820000 1.010000 -0.089551
v -0.810000 1.010000 -0.079551
v -0.810000 0.990000 -0.079551
v -0.810000 1.010000 -0.069551
v -0.810000 0.990000 -0.069551
v -0.800000 0.990000 -0.069551
v -0.800000 1.010000 -0.069551
v -0.812500 0.990000 -0.089551
v -0.800000 0.990000 -0.077051
v -0.808839 0.990000 -0.080712
v -0.806250 0.990000 -0.087877
v -0.801675 0.990000 -0.083301
v -0.800000 1.010000 -0.077051
v -0.812500 1.010000 -0.089551
v -0.808839 1.010000 -0.080712
v -0.801675 1.010000 -0.083301
v -0.806250 1.010000 -0.087877
v -0.910000 0.990000 -0.077051
v -0.897500 0.990000 -0.089551
v -0.898820 0.990000 -0.083961
v -0.908325 0.990000 -0.083301
v -0.903750 0.990000 -0.087877
v -0.897500 1.010000 -0.089551
v -0.910000 1.010000 -0.077051
v -0.898820 1.010000 -0.083961
v -0.903750 1.010000 -0.087877
v -0.908325 1.010000 -0.083301
v -0.877500 0.990000 -0.079551
v -0.890000 0.990000 -0.069551
v -0.898775 0.990000 -0.083939
v -0.883750 0.990000 -0.078212
v -0.888325 0.990000 -0.074551
v -0.890000 1.010000 -0.069551
v -0.877500 1.010000 -0.079551
v -0.898775 1.010000 -0.083939
v -0.888325 1.010000 -0.074551
v -0.883750 1.010000 -0.078212
vn 1.0000 -0.0000 -0.0000
vn -0.0000 -0.0000 -1.0000
vn -1.0000 -0.0000 -0.0000
vn -0.0000 -0.0000 1.0000
vn -0.0000 -1.0000 -0.0000
vn -0.0000 1.0000 -0.0000
vn 0.4082 0.4082 0.8165
vn 0.4082 0.4082 -0.8165
vn -0.4082 0.4082 -0.8165
vn -0.4082 0.4082 0.8165
vn -0.8391 -0.0826 -0.5376
vn -0.8391 -0.0826 0.5376
vn 0.8391 -0.0826 0.5376
vn 0.8391 -0.0826 -0.5376
vn 0.2856 0.6894 0.6657
vn 0.2856 0.6894 -0.6657
vn 0.5276 0.5276 0.6657
vn 0.5276 0.5276 -0.6657
vn 0.6894 0.2856 0.6657
vn 0.6894 0.2856 -0.6657
vn 0.5327 0.6491 0.5431
vn 0.5327 0.6491 -0.5431
vn -0.2856 0.6894 -0.6657
vn -0.2856 0.6894 0.6657
vn -0.5276 0.5276 -0.6657
vn -0.5276 0.5276 0.6657
vn -0.6894 0.2856 -0.6657
vn -0.6894 0.2856 0.6657
vn -0.5327 0.6491 -0.5431
vn -0.5327 0.6491 0.5431
vn 0.7071 -0.7071 -0.0000
vn 0.5774 -0.5774 -0.5774
vn 0.5774 0.5774 -0.5774
vn 0.3162 0.9487 -0.0000
vn 0.8391 0.0826 -0.5376
vn 0.8391 0.0826 0.5376
vn -0.8391 0.0826 0.5376
vn -0.8391 0.0826 -0.5376
vn -0.2856 -0.6894 0.6657
vn -0.2856 -0.6894 -0.6657
vn -0.5276 -0.5276 0.6657
vn -0.5276 -0.5276 -0.6657
vn -0.6894 -0.2856 0.6657
vn -0.6894 -0.2856 -0.6657
vn -0.6071 0.4982 0.6190
vn -0.6071 0.4982 -0.6190
vn 0.2856 -0.6894 -0.6657
vn 0.2856 -0.6894 0.6657
vn 0.5276 -0.5276 -0.6657
vn 0.5276 -0.5276 0.6657
vn 0.6894 -0.2856 -0.6657
vn 0.6894 -0.2856 0.6657
vn 0.6071 0.4982 -0.6190
vn 0.6071 0.4982 0.6190
vn -0.5774 -0.5774 -0.5774
vn -0.5774 0.5774 -0.5774
vn -0.7071 -0.7071 -0.0000
vn -0.7071 0.7071 -0.0000
vn -0.7280 -0.6789 0.0958
vn -0.7280 0.6789 0.0958
vn -0.0000 -0.7071 0.7071
vn 0.0958 -0.6789 0.7280
vn 0.0958 0.6789 0.7280
vn -0.0000 0.7071 0.7071
vn 0.0718 0.7316 -0.6779
vn -0.0000 0.7071 -0.7071
vn -0.0000 -0.7071 -0.7071
vn 0.0718 -0.7316 -0.6779
vn -0.3015 0.9045 -0.3015
vn -0.3015 -0.9045 -0.3015
vn -0.5773 0.5774 -0.5774
vn 0.5774 0.5773 -0.5774
vn 0.7280 0.6789 0.0958
vn 0.6557 0.6532 0.3786
vn 0.6557 -0.6532 0.3786
vn 0.7280 -0.6789 0.0958
vn 0.3786 0.6532 0.6557
vn 0.3786 -0.6532 0.6557
vn -0.0958 0.6789 0.7280
vn -0.3786 0.6532 0.6557
vn -0.3786 -0.6532 0.6557
vn -0.0958 -0.6789 0.7280
vn -0.6557 0.6532 0.3786
vn -0.6557 -0.6532 0.3786
vn 0.2772 -0.7627 -0.5844
vn 0.2772 0.7627 -0.5844
vn 0.5165 -0.7766 -0.3607
vn 0.5165 0.7766 -0.3607
vn 0.8293 -0.4849 -0.2778
vn 0.3457 0.9312 -0.1158
vn -0.0000 -0.6303 -0.7764
vn -0.5490 -0.6303 -0.5490
vn -0.5490 0.6303 -0.5490
vn -0.0000 0.6303 -0.7764
vn -0.7764 -0.6303 -0.0000
vn -0.7764 0.6303 -0.0000
vn -0.5490 -0.6303 0.5490
vn -0.5490 0.6303 0.5490
vn -0.0000 -0.6303 0.7764
vn -0.0000 0.6303 0.7764
vn 0.5490 -0.6303 0.5490
vn 0.5490 0.6303 0.5490
vn 0.7764 -0.6303 -0.0000
vn 0.7764 0.6303 -0.0000
vn 0.5490 -0.6303 -0.5490
vn 0.5490 0.6303 -0.5490
vn 0.5774 0.5774 0.5774
vn 0.5774 -0.5774 0.5774
vn -0.5774 0.5774 0.5774
vn -0.5774 -0.5774 0.5774
vn -0.7280 0.6789 -0.0958
vn -0.7280 -0.6789 -0.0958
vn 0.0958 0.6789 -0.7280
vn 0.0958 -0.6789 -0.7280
vn 0.0718 0.7316 0.6779
vn 0.0718 -0.7316 0.6779
vn -0.3015 -0.9045 0.3015
vn -0.3015 0.9045 0.3015
vn 0.7280 0.6789 -0.0958
vn 0.7280 -0.6789 -0.0958
vn 0.6557 -0.6532 -0.3786
vn 0.6557 0.6532 -0.3786
vn 0.3786 -0.6532 -0.6557
vn 0.3786 0.6532 -0.6557
vn -0.0958 0.6789 -0.7280
vn -0.0958 -0.6789 -0.7280
vn -0.3786 -0.6532 -0.6557
vn -0.3786 0.6532 -0.6557
vn -0.6557 -0.6532 -0.3786
vn -0.6557 0.6532 -0.3786
vn 0.2772 0.7627 0.5844
vn 0.2772 -0.7627 0.5844
vn 0.5165 0.7766 0.3607
vn 0.5165 -0.7766 0.3607
vn 0.3457 0.9312 0.1158
vn 0.8293 -0.4849 0.2778
vt 0.375000 0.000000
vt 0.375000 1.000000
vt 0.125000 0.750000
vt 0.625000 0.000000
vt 0.625000 1.000000
vt 0.875000 0.750000
vt 0.375000 0.250000
vt 0.125000 0.500000
vt 0.625000 0.250000
vt 0.875000 0.500000
vt 0.375000 0.750000
vt 0.625000 0.750000
vt 0.375000 0.500000
vt 0.625000 0.500000
vt 0.375000 0.000000
vt 0.375000 1.000000
vt 0.625000 1.000000
vt 0.625000 0.000000
vt 0.375000 0.250000
vt 0.625000 0.250000
vt 0.375000 0.750000
vt 0.625000 0.750000
vt 0.375000 0.500000
vt 0.625000 0.500000
vt 0.625000 0.250000
vt 0.875000 0.500000
vt 0.375000 0.250000
vt 0.125000 0.500000
vt 0.875000 0.750000
vt 0.625000 0.000000
vt 0.125000 0.750000
vt 0.375000 0.000000
vt 0.625000 0.875000
vt 0.750000 0.750000
vt 0.625000 1.000000
vt 0.625000 0.000000
vt 0.625000 0.922835
vt 0.797835 0.750000
vt 0.625000 0.963388
vt 0.875000 0.750000
vt 0.625000 0.000000
vt 0.625000 0.990485
vt 0.625000 0.000000
vt 0.625000 0.250000
vt 0.625000 0.375000
vt 0.750000 0.500000
vt 0.625000 0.259515
vt 0.625000 0.250000
vt 0.625000 0.286612
vt 0.875000 0.500000
vt 0.625000 0.250000
vt 0.625000 0.327165
vt 0.797835 0.500000
vt 0.625000 0.750000
vt 0.625000 0.875000
vt 0.750000 0.750000
vt 0.625000 0.759515
vt 0.625000 0.750000
vt 0.625000 0.786612
vt 0.625000 0.750000
vt 0.625000 0.827165
vt 0.702165 0.750000
vt 0.625000 0.375000
vt 0.750000 0.500000
vt 0.625000 0.500000
vt 0.625000 0.422835
vt 0.702165 0.500000
vt 0.625000 0.463388
vt 0.625000 0.500000
vt 0.625000 0.490485
vt 0.625000 0.500000
vt 0.250000 0.750000
vt 0.375000 0.875000
vt 0.375000 0.750000
vt 0.297835 0.750000
vt 0.375000 0.827165
vt 0.375000 0.750000
vt 0.375000 0.786612
vt 0.375000 0.750000
vt 0.375000 0.759515
vt 0.375000 0.500000
vt 0.375000 0.375000
vt 0.250000 0.500000
vt 0.375000 0.490485
vt 0.375000 0.500000
vt 0.375000 0.463388
vt 0.375000 0.500000
vt 0.375000 0.422835
vt 0.297835 0.500000
vt 0.375000 0.000000
vt 0.375000 1.000000
vt 0.250000 0.750000
vt 0.375000 0.875000
vt 0.375000 0.000000
vt 0.375000 0.990485
vt 0.125000 0.750000
vt 0.375000 0.000000
vt 0.375000 0.963388
vt 0.202165 0.750000
vt 0.375000 0.922835
vt 0.375000 0.375000
vt 0.250000 0.500000
vt 0.375000 0.250000
vt 0.375000 0.327165
vt 0.202165 0.500000
vt 0.375000 0.286612
vt 0.125000 0.500000
vt 0.375000 0.250000
vt 0.375000 0.259515
vt 0.375000 0.250000
vt 0.375000 0.750000
vt 0.625000 0.750000
vt 0.375000 0.500000
vt 0.625000 0.500000
vt 0.625000 0.000000
vt 0.875000 0.750000
vt 0.375000 0.000000
vt 0.125000 0.750000
vt 0.375000 0.750000
vt 0.625000 0.750000
vt 0.625000 0.000000
vt 0.875000 0.750000
vt 0.375000 0.000000
vt 0.125000 0.750000
vt 0.875000 0.750000
vt 0.625000 1.000000
vt 0.625000 0.000000
vt 0.125000 0.750000
vt 0.375000 1.000000
vt 0.375000 0.000000
vt 0.375000 0.750000
vt 0.625000 0.750000
vt 0.375000 0.750000
vt 0.375000 0.750000
vt 0.154030 0.750000
vt 0.375000 0.750000
vt 0.375000 0.750000
vt 0.625000 0.750000
vt 0.625000 0.750000
vt 0.845970 0.750000
vt 0.625000 0.750000
vt 0.625000 0.750000
vt 0.375000 0.750000
vt 0.375000 0.750000
vt 0.235246 0.750000
vt 0.375000 0.750000
vt 0.375000 0.750000
vt 0.625000 0.750000
vt 0.625000 0.750000
vt 0.764754 0.750000
vt 0.625000 0.750000
vt 0.625000 0.750000
vt 0.125000 0.750000
vt 0.375000 0.000000
vt 0.125000 0.750000
vt 0.375000 0.000000
vt 0.234687 0.750000
vt 0.375000 0.000000
vt 0.375000 0.000000
vt 0.375000 0.000000
vt 0.875000 0.750000
vt 0.625000 0.000000
vt 0.875000 0.750000
vt 0.625000 0.000000
vt 0.765313 0.750000
vt 0.625000 0.000000
vt 0.625000 0.000000
vt 0.625000 0.000000
vt 1.000000 0.500000
vt 0.000000 0.500000
vt 0.750000 0.490000
vt 1.000000 1.000000
vt 0.250000 0.490000
vt 0.000000 1.000000
vt 0.875000 0.500000
vt 0.919706 0.419706
vt 0.875000 1.000000
vt 0.419706 0.419706
vt 0.750000 0.500000
vt 0.990000 0.250000
vt 0.750000 1.000000
vt 0.490000 0.250000
vt 0.625000 0.500000
vt 0.919706 0.080294
vt 0.625000 1.000000
vt 0.419706 0.080294
vt 0.500000 0.500000
vt 0.750000 0.010000
vt 0.500000 1.000000
vt 0.250000 0.010000
vt 0.375000 0.500000
vt 0.580294 0.080294
vt 0.375000 1.000000
vt 0.080294 0.080294
vt 0.250000 0.500000
vt 0.510000 0.250000
vt 0.010000 0.250000
vt 0.250000 1.000000
vt 0.125000 0.500000
vt 0.580294 0.419706
vt 0.080294 0.419706
vt 0.125000 1.000000
vt 1.000000 0.500000
vt 0.000000 0.500000
vt 0.750000 0.490000
vt 1.000000 1.000000
vt 0.250000 0.490000
vt 0.000000 1.000000
vt 0.875000 0.500000
vt 0.919706 0.419706
vt 0.875000 1.000000
vt 0.419706 0.419706
vt 0.750000 0.500000
vt 0.990000 0.250000
vt 0.750000 1.000000
vt 0.490000 0.250000
vt 0.625000 0.500000
vt 0.919706 0.080294
vt 0.625000 1.000000
vt 0.419706 0.080294
vt 0.500000 0.500000
vt 0.750000 0.010000
vt 0.500000 1.000000
vt 0.250000 0.010000
vt 0.375000 0.500000
vt 0.580294 0.080294
vt 0.375000 1.000000
vt 0.080294 0.080294
vt 0.250000 0.500000
vt 0.510000 0.250000
vt 0.010000 0.250000
vt 0.250000 1.000000
vt 0.125000 0.500000
vt 0.580294 0.419706
vt 0.080294 0.419706
vt 0.125000 1.000000
vt 1.000000 0.500000
vt 0.000000 0.500000
vt 0.750000 0.490000
vt 1.000000 1.000000
vt 0.250000 0.490000
vt 0.000000 1.000000
vt 0.875000 0.500000
vt 0.919706 0.419706
vt 0.875000 1.000000
vt 0.419706 0.419706
vt 0.750000 0.500000
vt 0.990000 0.250000
vt 0.750000 1.000000
vt 0.490000 0.250000
vt 0.625000 0.500000
vt 0.919706 0.080294
vt 0.625000 1.000000
vt 0.419706 0.080294
vt 0.500000 0.500000
vt 0.750000 0.010000
vt 0.500000 1.000000
vt 0.250000 0.010000
vt 0.375000 0.500000
vt 0.580294 0.080294
vt 0.375000 1.000000
vt 0.080294 0.080294
vt 0.250000 0.500000
vt 0.510000 0.250000
vt 0.010000 0.250000
vt 0.250000 1.000000
vt 0.125000 0.500000
vt 0.580294 0.419706
vt 0.080294 0.419706
vt 0.125000 1.000000
vt 1.000000 0.500000
vt 0.000000 0.500000
vt 0.750000 0.490000
vt 1.000000 1.000000
vt 0.250000 0.490000
vt 0.000000 1.000000
vt 0.875000 0.500000
vt 0.919706 0.419706
vt 0.875000 1.000000
vt 0.419706 0.419706
vt 0.750000 0.500000
vt 0.990000 0.250000
vt 0.750000 1.000000
vt 0.490000 0.250000
vt 0.625000 0.500000
vt 0.919706 0.080294
vt 0.625000 1.000000
vt 0.419706 0.080294
vt 0.500000 0.500000
vt 0.750000 0.010000
vt 0.500000 1.000000
vt 0.250000 0.010000
vt 0.375000 0.500000
vt 0.580294 0.080294
vt 0.375000 1.000000
vt 0.080294 0.080294
vt 0.250000 0.500000
vt 0.510000 0.250000
vt 0.010000 0.250000
vt 0.250000 1.000000
vt 0.125000 0.500000
vt 0.580294 0.419706
vt 0.080294 0.419706
vt 0.125000 1.000000
vt 0.375000 0.000000
vt 0.375000 1.000000
vt 0.625000 1.000000
vt 0.625000 0.000000
vt 0.375000 0.250000
vt 0.625000 0.250000
vt 0.375000 0.750000
vt 0.625000 0.750000
vt 0.375000 0.500000
vt 0.625000 0.500000
vt 0.625000 0.250000
vt 0.875000 0.500000
vt 0.375000 0.250000
vt 0.125000 0.500000
vt 0.875000 0.750000
vt 0.625000 0.000000
vt 0.125000 0.750000
vt 0.375000 0.000000
vt 0.625000 0.875000
vt 0.750000 0.750000
vt 0.625000 1.000000
vt 0.625000 0.000000
vt 0.625000 0.922835
vt 0.797835 0.750000
vt 0.625000 0.963388
vt 0.875000 0.750000
vt 0.625000 0.000000
vt 0.625000 0.990485
vt 0.625000 0.000000
vt 0.625000 0.250000
vt 0.625000 0.375000
vt 0.750000 0.500000
vt 0.625000 0.259515
vt 0.625000 0.250000
vt 0.625000 0.286612
vt 0.875000 0.500000
vt 0.625000 0.250000
vt 0.625000 0.327165
vt 0.797835 0.500000
vt 0.625000 0.750000
vt 0.625000 0.875000
vt 0.750000 0.750000
vt 0.625000 0.759515
vt 0.625000 0.750000
vt 0.625000 0.786612
vt 0.625000 0.750000
vt 0.625000 0.827165
vt 0.702165 0.750000
vt 0.625000 0.375000
vt 0.750000 0.500000
vt 0.625000 0.500000
vt 0.625000 0.422835
vt 0.702165 0.500000
vt 0.625000 0.463388
vt 0.625000 0.500000
vt 0.625000 0.490485
vt 0.625000 0.500000
vt 0.250000 0.750000
vt 0.375000 0.875000
vt 0.375000 0.750000
vt 0.297835 0.750000
vt 0.375000 0.827165
vt 0.375000 0.750000
vt 0.375000 0.786612
vt 0.375000 0.750000
vt 0.375000 0.759515
vt 0.375000 0.500000
vt 0.375000 0.375000
vt 0.250000 0.500000
vt 0.375000 0.490485
vt 0.375000 0.500000
vt 0.375000 0.463388
vt 0.375000 0.500000
vt 0.375000 0.422835
vt 0.297835 0.500000
vt 0.375000 0.000000
vt 0.375000 1.000000
vt 0.250000 0.750000
vt 0.375000 0.875000
vt 0.375000 0.000000
vt 0.375000 0.990485
vt 0.125000 0.750000
vt 0.375000 0.000000
vt 0.375000 0.963388
vt 0.202165 0.750000
vt 0.375000 0.922835
vt 0.375000 0.375000
vt 0.250000 0.500000
vt 0.375000 0.250000
vt 0.375000 0.327165
vt 0.202165 0.500000
vt 0.375000 0.286612
vt 0.125000 0.500000
vt 0.375000 0.250000
vt 0.375000 0.259515
vt 0.375000 0.250000
vt 0.375000 0.750000
vt 0.625000 0.750000
vt 0.375000 0.500000
vt 0.625000 0.500000
vt 0.625000 0.000000
vt 0.875000 0.750000
vt 0.375000 0.000000
vt 0.125000 0.750000
vt 0.375000 0.750000
vt 0.625000 0.750000
vt 0.625000 0.000000
vt 0.875000 0.750000
vt 0.375000 0.000000
vt 0.125000 0.750000
vt 0.875000 0.750000
vt 0.625000 1.000000
vt 0.625000 0.000000
vt 0.125000 0.750000
vt 0.375000 1.000000
vt 0.375000 0.000000
vt 0.375000 0.750000
vt 0.625000 0.750000
vt 0.375000 0.750000
vt 0.375000 0.750000
vt 0.154030 0.750000
vt 0.375000 0.750000
vt 0.375000 0.750000
vt 0.625000 0.750000
vt 0.625000 0.750000
vt 0.845970 0.750000
vt 0.625000 0.750000
vt 0.625000 0.750000
vt 0.375000 0.750000
vt 0.375000 0.750000
vt 0.235246 0.750000
vt 0.375000 0.750000
vt 0.375000 0.750000
vt 0.625000 0.750000
vt 0.625000 0.750000
vt 0.764754 0.750000
vt 0.625000 0.750000
vt 0.625000 0.750000
vt 0.125000 0.750000
vt 0.375000 0.000000
vt 0.125000 0.750000
vt 0.375000 0.000000
vt 0.234687 0.750000
vt 0.375000 0.000000
vt 0.375000 0.000000
vt 0.375000 0.000000
vt 0.875000 0.750000
vt 0.625000 0.000000
vt 0.875000 0.750000
vt 0.625000 0.000000
vt 0.765313 0.750000
vt 0.625000 0.000000
vt 0.625000 0.000000
vt 0.625000 0.000000
s 0
usemtl door
f 1/1/1 3/7/1 4/9/1 2/4/1
f 3/7/2 7/13/2 8/14/2 4/9/2
f 7/13/3 5/11/3 6/12/3 8/14/3
f 5/11/4 1/2/4 2/5/4 6/12/4
f 3/8/5 1/3/5 5/11/5 7/13/5
f 8/14/6 6/12/6 2/6/6 4/10/6
s 1
usemtl handle
f 9/15/7 11/19/8 12/20/8 10/18/7
s 0
f 11/19/2 15/23/2 16/24/2 12/20/2
s 1
f 15/23/9 13/21/10 14/22/10 16/24/9
s 0
f 13/21/4 9/16/4 10/17/4 14/22/4
f 9/15/6 51/90/6 57/103/6 11/19/6
f 14/22/6 31/54/6 37/65/6 16/24/6
f 10/17/4 22/35/4 25/42/4 24/39/4 23/37/4 21/33/4 32/55/4 35/61/4 34/59/4 33/57/4 31/54/4 14/22/4
f 11/19/2 57/103/2 60/109/2 59/106/2 58/104/2 56/101/2 47/82/2 50/88/2 49/86/2 48/84/2 46/81/2 15/23/2
s 1
f 36/64/11 32/56/12 21/34/13 27/46/14
s 0
f 16/24/2 37/65/2 40/70/2 39/68/2 38/66/2 36/63/2 27/45/2 30/52/2 29/49/2 28/47/2 26/44/2 12/20/2
s 1
f 21/34/13 23/38/15 30/53/16 27/46/14
f 23/38/15 24/40/17 29/50/18 30/53/16
f 24/41/17 25/43/19 28/48/20 29/51/18
f 25/43/19 22/36/21 26/44/22 28/48/20
f 36/64/11 38/67/23 35/62/24 32/56/12
f 38/67/23 39/69/25 34/60/26 35/62/24
f 39/69/25 40/71/27 33/58/28 34/60/26
f 40/71/27 37/65/29 31/54/30 33/58/28
s 0
f 12/20/6 26/44/6 22/36/6 10/18/6
s 1
f 20/32/31 18/27/32 17/25/33 19/30/34
f 56/102/35 52/92/36 41/72/37 47/83/38
s 0
f 15/23/6 46/81/6 42/74/6 13/21/6
s 1
f 41/72/37 43/75/39 50/89/40 47/83/38
f 43/75/39 44/77/41 49/87/42 50/89/40
f 44/77/41 45/79/43 48/85/44 49/87/42
f 45/79/43 42/74/45 46/81/46 48/85/44
f 56/102/35 58/105/47 55/99/48 52/92/36
f 58/105/47 59/107/49 54/96/50 55/99/48
f 59/108/49 60/110/51 53/94/52 54/97/50
f 60/110/51 57/103/53 51/90/54 53/94/52
s 0
f 13/21/4 42/74/4 45/80/4 44/78/4 43/76/4 41/73/4 52/93/4 55/100/4 54/98/4 53/95/4 51/91/4 9/16/4
s 1
f 18/27/32 63/113/55 64/114/56 17/25/33
f 63/113/55 61/111/57 62/112/58 64/114/56
f 61/111/57 85/143/59 91/149/60 62/112/58
s 0
f 18/28/5 20/31/5 61/111/5 63/113/5
f 64/114/6 62/112/6 19/29/6 17/26/6
s 1
f 67/119/61 75/133/62 81/139/63 68/120/64
f 101/164/65 65/115/66 66/117/67 95/154/68
s 0
f 90/148/6 68/120/6 65/116/6 101/163/6 102/165/6 92/150/6
f 95/153/5 66/118/5 67/119/5 86/144/5 87/145/5 97/157/5
f 62/112/6 91/149/6 92/150/6 102/165/6 100/161/6 19/29/6
f 20/31/5 96/155/5 97/157/5 87/145/5 85/143/5 61/111/5
f 80/138/6 74/132/6 71/125/6 69/122/6 82/140/6
s 1
f 65/115/66 69/121/69 70/123/70 66/117/67
s 0
f 70/124/5 72/128/5 73/131/5 76/134/5 77/135/5
s 1
f 73/131/32 72/129/55 71/126/71 74/132/72
f 69/121/69 71/127/71 72/130/55 70/123/70
s 0
f 68/120/6 81/139/6 82/140/6 69/122/6 65/116/6
f 66/118/5 70/124/5 77/135/5 75/133/5 67/119/5
f 75/133/5 77/135/5 78/136/5
f 78/136/5 77/135/5 79/137/5
f 79/137/5 77/135/5 76/134/5
f 80/138/6 82/140/6 83/141/6
f 83/141/6 82/140/6 84/142/6
f 84/142/6 82/140/6 81/139/6
s 1
f 80/138/73 83/141/74 79/137/75 76/134/76
f 83/141/74 84/142/77 78/136/78 79/137/75
f 84/142/77 81/139/63 75/133/62 78/136/78
f 76/134/76 73/131/32 74/132/72 80/138/73
s 0
f 85/143/5 87/145/5 88/146/5
f 88/146/5 87/145/5 89/147/5
f 89/147/5 87/145/5 86/144/5
f 90/148/6 92/150/6 93/151/6
f 93/151/6 92/150/6 94/152/6
f 94/152/6 92/150/6 91/149/6
s 1
f 90/148/79 93/151/80 89/147/81 86/144/82
f 93/151/80 94/152/83 88/146/84 89/147/81
f 94/152/83 91/149/60 85/143/59 88/146/84
f 86/144/82 67/119/61 68/120/64 90/148/79
s 0
f 95/154/5 97/158/5 98/159/5
f 98/159/5 97/158/5 99/160/5
f 99/160/5 97/158/5 96/156/5
f 100/162/6 102/166/6 103/167/6
f 103/167/6 102/166/6 104/168/6
f 104/168/6 102/166/6 101/164/6
s 1
f 95/154/68 98/159/85 104/168/86 101/164/65
f 98/159/85 99/160/87 103/167/88 104/168/86
f 99/160/87 96/156/89 100/162/90 103/167/88
f 19/30/34 100/162/90 96/156/89 20/32/31
f 105/169/91 107/175/92 108/177/93 106/172/94
f 107/175/92 109/179/95 110/181/96 108/177/93
f 109/179/95 111/183/97 112/185/98 110/181/96
f 111/183/97 113/187/99 114/189/100 112/185/98
f 113/187/99 115/191/101 116/193/102 114/189/100
f 115/191/101 117/195/103 118/198/104 116/193/102
s 0
f 108/178/6 110/182/6 112/186/6 114/190/6 116/194/6 118/197/6 120/201/6 106/173/6
s 1
f 117/195/103 119/199/105 120/202/106 118/198/104
f 119/199/105 105/170/91 106/174/94 120/202/106
s 0
f 105/171/5 119/200/5 117/196/5 115/192/5 113/188/5 111/184/5 109/180/5 107/176/5
s 1
f 121/203/91 123/209/92 124/211/93 122/206/94
f 123/209/92 125/213/95 126/215/96 124/211/93
f 125/213/95 127/217/97 128/219/98 126/215/96
f 127/217/97 129/221/99 130/223/100 128/219/98
f 129/221/99 131/225/101 132/227/102 130/223/100
f 131/225/101 133/229/103 134/232/104 132/227/102
s 0
f 124/212/6 126/216/6 128/220/6 130/224/6 132/228/6 134/231/6 136/235/6 122/207/6
s 1
f 133/229/103 135/233/105 136/236/106 134/232/104
f 135/233/105 121/204/91 122/208/94 136/236/106
s 0
f 121/205/5 135/234/5 133/230/5 131/226/5 129/222/5 127/218/5 125/214/5 123/210/5
s 1
f 137/237/91 139/243/92 140/245/93 138/240/94
f 139/243/92 141/247/95 142/249/96 140/245/93
f 141/247/95 143/251/97 144/253/98 142/249/96
f 143/251/97 145/255/99 146/257/100 144/253/98
f 145/255/99 147/259/101 148/261/102 146/257/100
f 147/259/101 149/263/103 150/266/104 148/261/102
s 0
f 140/246/6 142/250/6 144/254/6 146/258/6 148/262/6 150/265/6 152/269/6 138/241/6
s 1
f 149/263/103 151/267/105 152/270/106 150/266/104
f 151/267/105 137/238/91 138/242/94 152/270/106
s 0
f 137/239/5 151/268/5 149/264/5 147/260/5 145/256/5 143/252/5 141/248/5 139/244/5
s 1
f 153/271/91 155/277/92 156/279/93 154/274/94
f 155/277/92 157/281/95 158/283/96 156/279/93
f 157/281/95 159/285/97 160/287/98 158/283/96
f 159/285/97 161/289/99 162/291/100 160/287/98
f 161/289/99 163/293/101 164/295/102 162/291/100
f 163/293/101 165/297/103 166/300/104 164/295/102
s 0
f 156/280/6 158/284/6 160/288/6 162/292/6 164/296/6 166/299/6 168/303/6 154/275/6
s 1
f 165/297/103 167/301/105 168/304/106 166/300/104
f 167/301/105 153/272/91 154/276/94 168/304/106
s 0
f 153/273/5 167/302/5 165/298/5 163/294/5 161/290/5 159/286/5 157/282/5 155/278/5
s 1
f 169/305/8 170/308/8 172/310/7 171/309/7
s 0
f 171/309/4 172/310/4 176/314/4 175/313/4
s 1
f 175/313/10 176/314/10 174/312/9 173/311/9
s 0
f 173/311/2 174/312/2 170/307/2 169/306/2
f 169/305/6 171/309/6 217/393/6 211/380/6
f 174/312/6 176/314/6 197/355/6 191/344/6
f 170/307/2 174/312/2 191/344/2 193/347/2 194/349/2 195/351/2 192/345/2 181/323/2 183/327/2 184/329/2 185/332/2 182/325/2
f 171/309/4 175/313/4 206/371/4 208/374/4 209/376/4 210/378/4 207/372/4 216/391/4 218/394/4 219/396/4 220/399/4 217/393/4
s 1
f 196/354/12 187/336/13 181/324/14 192/346/11
s 0
f 176/314/4 172/310/4 186/334/4 188/337/4 189/339/4 190/342/4 187/335/4 196/353/4 198/356/4 199/358/4 200/360/4 197/355/4
s 1
f 181/324/14 187/336/13 190/343/15 183/328/16
f 183/328/16 190/343/15 189/340/17 184/330/18
f 184/331/18 189/341/17 188/338/19 185/333/20
f 185/333/20 188/338/19 186/334/21 182/326/22
f 196/354/12 192/346/11 195/352/23 198/357/24
f 198/357/24 195/352/23 194/350/25 199/359/26
f 199/359/26 194/350/25 193/348/27 200/361/28
f 200/361/28 193/348/27 191/344/29 197/355/30
s 0
f 172/310/6 170/308/6 182/326/6 186/334/6
s 1
f 180/322/31 179/320/34 177/315/107 178/317/108
f 216/392/36 207/373/37 201/362/38 212/382/35
s 0
f 175/313/6 173/311/6 202/364/6 206/371/6
s 1
f 201/362/38 207/373/37 210/379/39 203/365/40
f 203/365/40 210/379/39 209/377/41 204/367/42
f 204/367/42 209/377/41 208/375/43 205/369/44
f 205/369/44 208/375/43 206/371/45 202/364/46
f 216/392/36 212/382/35 215/389/47 218/395/48
f 218/395/48 215/389/47 214/386/49 219/397/50
f 219/398/50 214/387/49 213/384/51 220/400/52
f 220/400/52 213/384/51 211/380/53 217/393/54
s 0
f 173/311/2 169/306/2 211/381/2 213/385/2 214/388/2 215/390/2 212/383/2 201/363/2 203/366/2 204/368/2 205/370/2 202/364/2
s 1
f 178/317/108 177/315/107 224/404/109 223/403/110
f 223/403/110 224/404/109 222/402/58 221/401/57
f 221/401/57 222/402/58 251/439/111 245/433/112
s 0
f 178/318/5 223/403/5 221/401/5 180/321/5
f 224/404/6 177/316/6 179/319/6 222/402/6
s 1
f 227/409/67 228/410/66 241/429/113 235/423/114
f 261/454/115 255/444/116 226/407/61 225/405/64
s 0
f 250/438/6 252/440/6 262/455/6 261/453/6 225/406/6 228/410/6
f 255/443/5 257/447/5 247/435/5 246/434/5 227/409/5 226/408/5
f 222/402/6 179/319/6 260/451/6 262/455/6 252/440/6 251/439/6
f 180/321/5 221/401/5 245/433/5 247/435/5 257/447/5 256/445/5
f 240/428/6 242/430/6 229/412/6 231/415/6 234/422/6
s 1
f 225/405/64 226/407/61 230/413/117 229/411/118
s 0
f 230/414/5 237/425/5 236/424/5 233/421/5 232/418/5
s 1
f 233/421/108 234/422/107 231/416/109 232/419/110
f 229/411/118 230/413/117 232/420/110 231/417/109
s 0
f 228/410/6 225/406/6 229/412/6 242/430/6 241/429/6
f 226/408/5 227/409/5 235/423/5 237/425/5 230/414/5
f 235/423/5 238/426/5 237/425/5
f 238/426/5 239/427/5 237/425/5
f 239/427/5 236/424/5 237/425/5
f 240/428/6 243/431/6 242/430/6
f 243/431/6 244/432/6 242/430/6
f 244/432/6 241/429/6 242/430/6
s 1
f 240/428/119 236/424/120 239/427/121 243/431/122
f 243/431/122 239/427/121 238/426/123 244/432/124
f 244/432/124 238/426/123 235/423/114 241/429/113
f 236/424/120 240/428/119 234/422/107 233/421/108
s 0
f 245/433/5 248/436/5 247/435/5
f 248/436/5 249/437/5 247/435/5
f 249/437/5 246/434/5 247/435/5
f 250/438/6 253/441/6 252/440/6
f 253/441/6 254/442/6 252/440/6
f 254/442/6 251/439/6 252/440/6
s 1
f 250/438/125 246/434/126 249/437/127 253/441/128
f 253/441/128 249/437/127 248/436/129 254/442/130
f 254/442/130 248/436/129 245/433/112 251/439/111
f 246/434/126 250/438/125 228/410/66 227/409/67
s 0
f 255/444/5 258/449/5 257/448/5
f 258/449/5 259/450/5 257/448/5
f 259/450/5 256/446/5 257/448/5
f 260/452/6 263/457/6 262/456/6
f 263/457/6 264/458/6 262/456/6
f 264/458/6 261/454/6 262/456/6
s 1
f 255/444/116 261/454/115 264/458/131 258/449/132
f 258/449/132 264/458/131 263/457/133 259/450/134
f 259/450/134 263/457/133 260/452/135 256/446/136
f 179/320/34 180/322/31 256/446/136 260/452/135
