# Blender 3.3.21
# www.blender.org
mtllib elevator.mtl
o floor
v 1.000000 0.000000 -1.000000
v 1.000000 -0.100000 -1.000000
v 1.000000 0.000000 1.000000
v 1.000000 -0.100000 1.000000
v -1.000000 0.000000 -1.000000
v -1.000000 -0.100000 -1.000000
v -1.000000 0.000000 1.000000
v -1.000000 -0.100000 1.000000
vn -0.0000 1.0000 -0.0000
vn -0.0000 -0.0000 1.0000
vn -1.0000 -0.0000 -0.0000
vn -0.0000 -1.0000 -0.0000
vn 1.0000 -0.0000 -0.0000
vn -0.0000 -0.0000 -1.0000
vt 1.000000 1.000000
vt 1.000000 0.525000
vt 1.000000 1.000000
vt 1.000000 0.475000
vt 1.000000 0.000000
vt 1.000000 0.525000
vt 0.000000 0.525000
vt 1.000000 0.475000
vt 1.000000 0.000000
vt 0.000000 0.475000
vt 0.000000 1.000000
vt 1.000000 0.525000
vt 0.000000 0.525000
vt 1.000000 0.475000
vt 0.000000 1.000000
vt 0.000000 0.475000
vt 0.000000 0.000000
vt 0.000000 0.525000
vt 0.000000 0.475000
vt 0.000000 0.000000
s 0
usemtl floor
f 1/1/1 5/11/1 7/17/1 3/5/1
f 4/8/2 3/6/2 7/18/2 8/19/2
f 8/19/3 7/18/3 5/12/3 6/14/3
f 6/15/4 2/3/4 4/9/4 8/20/4
f 2/4/5 1/2/5 3/7/5 4/10/5
f 6/16/6 5/13/6 1/2/6 2/4/6
o swall
v 1.000000 2.500000 -1.100000
v 1.000000 -0.000000 -1.100000
v 1.000000 2.500000 -1.000000
v 1.000000 -0.000000 -1.000000
v -1.000000 2.500000 -1.100000
v -1.000000 -0.000000 -1.100000
v -1.000000 2.500000 -1.000000
v -1.000000 -0.000000 -1.000000
vn -0.0000 1.0000 -0.0000
vn -0.0000 -0.0000 1.0000
vn -1.0000 -0.0000 -0.0000
vn -0.0000 -1.0000 -0.0000
vn 1.0000 -0.0000 -0.0000
vn -0.0000 -0.0000 -1.0000
vt 1.000000 1.000000
vt 1.000000 0.525000
vt 1.000000 1.000000
vt 1.000000 0.475000
vt 1.000000 0.000000
vt 1.000000 0.525000
vt 0.000000 0.525000
vt 1.000000 0.475000
vt 1.000000 0.000000
vt 0.000000 0.475000
vt 0.000000 1.000000
vt 1.000000 0.525000
vt 0.000000 0.525000
vt 1.000000 0.475000
vt 0.000000 1.000000
vt 0.000000 0.475000
vt 0.000000 0.000000
vt 0.000000 0.525000
vt 0.000000 0.475000
vt 0.000000 0.000000
s 0
usemtl wall
f 9/21/7 13/31/7 15/37/7 11/25/7
f 12/28/8 11/26/8 15/38/8 16/39/8
f 16/39/9 15/38/9 13/32/9 14/34/9
f 14/35/10 10/23/10 12/29/10 16/40/10
f 10/24/11 9/22/11 11/27/11 12/30/11
f 14/36/12 13/33/12 9/22/12 10/24/12
o wwall
v 1.100000 2.500000 -1.000000
v 1.100000 -0.000000 -1.000000
v 1.100000 2.500000 1.000000
v 1.100000 -0.000000 1.000000
v 1.000000 2.500000 -1.000000
v 1.000000 -0.000000 -1.000000
v 1.000000 2.500000 1.000000
v 1.000000 -0.000000 1.000000
vn -0.0000 1.0000 -0.0000
vn -0.0000 -0.0000 1.0000
vn -1.0000 -0.0000 -0.0000
vn -0.0000 -1.0000 -0.0000
vn 1.0000 -0.0000 -0.0000
vn -0.0000 -0.0000 -1.0000
vt 1.000000 1.000000
vt 1.000000 0.525000
vt 1.000000 1.000000
vt 1.000000 0.475000
vt 1.000000 0.000000
vt 1.000000 0.525000
vt 0.000000 0.525000
vt 1.000000 0.475000
vt 1.000000 0.000000
vt 0.000000 0.475000
vt 0.000000 1.000000
vt 1.000000 0.525000
vt 0.000000 0.525000
vt 1.000000 0.475000
vt 0.000000 1.000000
vt 0.000000 0.475000
vt 0.000000 0.000000
vt 0.000000 0.525000
vt 0.000000 0.475000
vt 0.000000 0.000000
s 0
usemtl wall
f 17/41/13 21/51/13 23/57/13 19/45/13
f 20/48/14 19/46/14 23/58/14 24/59/14
f 24/59/15 23/58/15 21/52/15 22/54/15
f 22/55/16 18/43/16 20/49/16 24/60/16
f 18/44/17 17/42/17 19/47/17 20/50/17
f 22/56/18 21/53/18 17/42/18 18/44/18
o ewall
v -1.000000 2.500000 -1.000000
v -1.000000 -0.000000 -1.000000
v -1.000000 2.500000 1.000000
v -1.000000 -0.000000 1.000000
v -1.100000 2.500000 -1.000000
v -1.100000 -0.000000 -1.000000
v -1.100000 2.500000 1.000000
v -1.100000 -0.000000 1.000000
vn -0.0000 1.0000 -0.0000
vn -0.0000 -0.0000 1.0000
vn -1.0000 -0.0000 -0.0000
vn -0.0000 -1.0000 -0.0000
vn 1.0000 -0.0000 -0.0000
vn -0.0000 -0.0000 -1.0000
vt 1.000000 1.000000
vt 1.000000 0.525000
vt 1.000000 1.000000
vt 1.000000 0.475000
vt 1.000000 0.000000
vt 1.000000 0.525000
vt 0.000000 0.525000
vt 1.000000 0.475000
vt 1.000000 0.000000
vt 0.000000 0.475000
vt 0.000000 1.000000
vt 1.000000 0.525000
vt 0.000000 0.525000
vt 1.000000 0.475000
vt 0.000000 1.000000
vt 0.000000 0.475000
vt 0.000000 0.000000
vt 0.000000 0.525000
vt 0.000000 0.475000
vt 0.000000 0.000000
s 0
usemtl wall
f 25/61/19 29/71/19 31/77/19 27/65/19
f 28/68/20 27/66/20 31/78/20 32/79/20
f 32/79/21 31/78/21 29/72/21 30/74/21
f 30/75/22 26/63/22 28/69/22 32/80/22
f 26/64/23 25/62/23 27/67/23 28/70/23
f 30/76/24 29/73/24 25/62/24 26/64/24
o nwallw
v 1.000000 2.200000 1.000000
v 1.000000 -0.000000 1.000000
v 1.000000 2.200000 1.100000
v 1.000000 -0.000000 1.100000
v 0.600000 2.200000 1.000000
v 0.600000 -0.000000 1.000000
v 0.600000 2.200000 1.100000
v 0.600000 -0.000000 1.100000
vn -0.0000 1.0000 -0.0000
vn -0.0000 -0.0000 1.0000
vn -1.0000 -0.0000 -0.0000
vn -0.0000 -1.0000 -0.0000
vn 1.0000 -0.0000 -0.0000
vn -0.0000 -0.0000 -1.0000
vt 1.000000 1.000000
vt 1.000000 0.525000
vt 1.000000 1.000000
vt 1.000000 0.475000
vt 1.000000 0.000000
vt 1.000000 0.525000
vt 0.000000 0.525000
vt 1.000000 0.475000
vt 1.000000 0.000000
vt 0.000000 0.475000
vt 0.000000 1.000000
vt 1.000000 0.525000
vt 0.000000 0.525000
vt 1.000000 0.475000
vt 0.000000 1.000000
vt 0.000000 0.475000
vt 0.000000 0.000000
vt 0.000000 0.525000
vt 0.000000 0.475000
vt 0.000000 0.000000
s 0
usemtl wall
f 33/81/25 37/91/25 39/97/25 35/85/25
f 36/88/26 35/86/26 39/98/26 40/99/26
f 40/99/27 39/98/27 37/92/27 38/94/27
f 38/95/28 34/83/28 36/89/28 40/100/28
f 34/84/29 33/82/29 35/87/29 36/90/29
f 38/96/30 37/93/30 33/82/30 34/84/30
o ceiling
v 1.000000 2.600000 -1.000000
v 1.000000 2.500000 -1.000000
v 1.000000 2.600000 1.000000
v 1.000000 2.500000 1.000000
v -1.000000 2.600000 -1.000000
v -1.000000 2.500000 -1.000000
v -1.000000 2.600000 1.000000
v -1.000000 2.500000 1.000000
vn -0.0000 1.0000 -0.0000
vn -0.0000 -0.0000 1.0000
vn -1.0000 -0.0000 -0.0000
vn -0.0000 -1.0000 -0.0000
vn 1.0000 -0.0000 -0.0000
vn -0.0000 -0.0000 -1.0000
vt 1.000000 1.000000
vt 1.000000 0.525000
vt 1.000000 1.000000
vt 1.000000 0.475000
vt 1.000000 0.000000
vt 1.000000 0.525000
vt 0.000000 0.525000
vt 1.000000 0.475000
vt 1.000000 0.000000
vt 0.000000 0.475000
vt 0.000000 1.000000
vt 1.000000 0.525000
vt 0.000000 0.525000
vt 1.000000 0.475000
vt 0.000000 1.000000
vt 0.000000 0.475000
vt 0.000000 0.000000
vt 0.000000 0.525000
vt 0.000000 0.475000
vt 0.000000 0.000000
s 0
usemtl wall
f 41/101/31 45/111/31 47/117/31 43/105/31
f 44/108/32 43/106/32 47/118/32 48/119/32
f 48/119/33 47/118/33 45/112/33 46/114/33
f 46/115/34 42/103/34 44/109/34 48/120/34
f 42/104/35 41/102/35 43/107/35 44/110/35
f 46/116/36 45/113/36 41/102/36 42/104/36
o nwalle
v -0.600000 2.200000 1.000000
v -0.600000 -0.000000 1.000000
v -0.600000 2.200000 1.100000
v -0.600000 -0.000000 1.100000
v -1.000000 2.200000 1.000000
v -1.000000 -0.000000 1.000000
v -1.000000 2.200000 1.100000
v -1.000000 -0.000000 1.100000
vn -0.0000 1.0000 -0.0000
vn -0.0000 -0.0000 1.0000
vn -1.0000 -0.0000 -0.0000
vn -0.0000 -1.0000 -0.0000
vn 1.0000 -0.0000 -0.0000
vn -0.0000 -0.0000 -1.0000
vt 1.000000 1.000000
vt 1.000000 0.525000
vt 1.000000 1.000000
vt 1.000000 0.475000
vt 1.000000 0.000000
vt 1.000000 0.525000
vt 0.000000 0.525000
vt 1.000000 0.475000
vt 1.000000 0.000000
vt 0.000000 0.475000
vt 0.000000 1.000000
vt 1.000000 0.525000
vt 0.000000 0.525000
vt 1.000000 0.475000
vt 0.000000 1.000000
vt 0.000000 0.475000
vt 0.000000 0.000000
vt 0.000000 0.525000
vt 0.000000 0.475000
vt 0.000000 0.000000
s 0
usemtl wall
f 49/121/37 53/131/37 55/137/37 51/125/37
f 52/128/38 51/126/38 55/138/38 56/139/38
f 56/139/39 55/138/39 53/132/39 54/134/39
f 54/135/40 50/123/40 52/129/40 56/140/40
f 50/124/41 49/122/41 51/127/41 52/130/41
f 54/136/42 53/133/42 49/122/42 50/124/42
o nwallt
v 1.000000 2.500000 1.000000
v 1.000000 2.200000 1.000000
v 1.000000 2.500000 1.100000
v 1.000000 2.200000 1.100000
v -1.000000 2.500000 1.000000
v -1.000000 2.200000 1.000000
v -1.000000 2.500000 1.100000
v -1.000000 2.200000 1.100000
vn -0.0000 1.0000 -0.0000
vn -0.0000 -0.0000 1.0000
vn -1.0000 -0.0000 -0.0000
vn -0.0000 -1.0000 -0.0000
vn 1.0000 -0.0000 -0.0000
vn -0.0000 -0.0000 -1.0000
vt 1.000000 1.000000
vt 1.000000 0.525000
vt 1.000000 1.000000
vt 1.000000 0.475000
vt 1.000000 0.000000
vt 1.000000 0.525000
vt 0.000000 0.525000
vt 1.000000 0.475000
vt 1.000000 0.000000
vt 0.000000 0.475000
vt 0.000000 1.000000
vt 1.000000 0.525000
vt 0.000000 0.525000
vt 1.000000 0.475000
vt 0.000000 1.000000
vt 0.000000 0.475000
vt 0.000000 0.000000
vt 0.000000 0.525000
vt 0.000000 0.475000
vt 0.000000 0.000000
s 0
usemtl wall
f 57/141/43 61/151/43 63/157/43 59/145/43
f 60/148/44 59/146/44 63/158/44 64/159/44
f 64/159/45 63/158/45 61/152/45 62/154/45
f 62/155/46 58/143/46 60/149/46 64/160/46
f 58/144/47 57/142/47 59/147/47 60/150/47
f 62/156/48 61/153/48 57/142/48 58/144/48
