# Blender 3.3.21
# www.blender.org
mtllib phone.mtl
o Cube
v 0.100000 0.000000 0.090000
v 0.000000 0.080000 -0.040000
v 0.090000 0.000000 0.100000
v 0.097071 0.000000 0.097071
v 0.000000 0.090000 -0.080000
v 0.090000 0.050000 0.100000
v 0.100000 0.052500 0.090000
v 0.080000 0.080000 -0.040000
v 0.097071 0.050732 0.097071
v 0.090000 0.000000 -0.100000
v 0.080000 0.090000 -0.080000
v 0.100000 0.000000 -0.090000
v 0.097071 0.000000 -0.097071
v 0.100000 0.097500 -0.090000
v 0.090000 0.100000 -0.100000
v 0.097071 0.099268 -0.097071
v -0.090000 0.000000 0.100000
v -0.100000 0.000000 0.090000
v -0.097071 0.000000 0.097071
v -0.100000 0.052500 0.090000
v -0.090000 0.050000 0.100000
v -0.097071 0.050732 0.097071
v -0.100000 0.000000 -0.090000
v -0.090000 0.000000 -0.100000
v -0.097071 0.000000 -0.097071
v -0.090000 0.100000 -0.100000
v -0.100000 0.097500 -0.090000
v -0.097071 0.099268 -0.097071
v 0.000000 0.095000 -0.080000
v 0.000000 0.085000 -0.040000
v 0.080000 0.085000 -0.040000
v 0.080000 0.095000 -0.080000
v -0.080000 0.055000 0.080000
v -0.080000 0.095000 -0.080000
v -0.020000 0.055000 0.080000
v -0.020000 0.095000 -0.080000
v -0.071078 0.072164 0.071344
v -0.080000 0.060944 0.080000
v -0.075539 0.069869 0.075672
v -0.078805 0.065762 0.078840
v -0.071078 0.107836 -0.071344
v -0.080000 0.100944 -0.080000
v -0.075539 0.107705 -0.075672
v -0.078805 0.105182 -0.078840
v -0.028922 0.072164 0.071344
v -0.020000 0.060944 0.080000
v -0.024461 0.069869 0.075672
v -0.021195 0.065762 0.078840
v -0.028922 0.107836 -0.071344
v -0.020000 0.100944 -0.080000
v -0.024461 0.107705 -0.075672
v -0.021195 0.105182 -0.078840
vn 0.1951 -0.0000 0.9808
vn 0.2008 -0.0000 0.9796
vn -0.2008 -0.0000 0.9796
vn -0.1951 -0.0000 0.9808
vn 0.9808 -0.0000 -0.1951
vn 0.9745 -0.0000 -0.2245
vn 0.9861 -0.0000 0.1659
vn 0.9808 -0.0000 0.1951
vn 0.7071 -0.0000 0.7071
vn 0.7353 -0.0000 0.6777
vn -0.0000 -1.0000 -0.0000
vn 0.7071 -0.0000 -0.7071
vn 0.6751 -0.0000 -0.7377
vn 0.1951 -0.0000 -0.9808
vn 0.1890 -0.0000 -0.9820
vn -0.1951 -0.0000 -0.9808
vn -0.1890 -0.0000 -0.9820
vn -0.7353 -0.0000 0.6777
vn -0.7071 -0.0000 0.7071
vn -0.9861 -0.0000 0.1659
vn -0.9808 -0.0000 0.1951
vn -0.0000 0.9701 0.2425
vn -0.7071 -0.0000 -0.7071
vn -0.6751 -0.0000 -0.7377
vn -0.9808 -0.0000 -0.1951
vn -0.9745 -0.0000 -0.2245
vn 1.0000 -0.0000 -0.0000
vn -0.0000 -0.0000 1.0000
vn -1.0000 -0.0000 -0.0000
vn -0.0000 -0.0000 -1.0000
vn 0.0957 0.9858 0.1383
vn -0.0957 0.9858 0.1383
vn -0.0982 0.9396 0.3278
vn 0.0982 0.9396 0.3278
vn 0.7563 -0.0000 -0.6542
vn 0.7061 0.1850 -0.6836
vn 0.6930 0.1427 0.7067
vn 0.6450 -0.0000 0.7642
vn -0.6450 -0.0000 0.7642
vn -0.6930 0.1427 0.7067
vn -0.7061 0.1850 -0.6836
vn -0.7563 -0.0000 -0.6542
vn -0.0000 -0.9701 -0.2425
vn -0.3258 0.9298 -0.1710
vn -0.3344 0.8043 0.4913
vn -0.5947 0.6053 -0.5290
vn -0.5846 0.4895 0.6470
vn 0.3258 0.9298 -0.1710
vn 0.5947 0.6053 -0.5290
vn 0.3344 0.8043 0.4913
vn 0.5846 0.4895 0.6470
vt 0.375000 0.737500
vt 0.375000 0.000000
vt 0.375000 1.000000
vt 0.125000 0.750000
vt 0.375000 0.762500
vt 0.362500 0.750000
vt 0.375000 0.750000
vt 0.371339 0.746339
vt 0.375000 0.250000
vt 0.125000 0.500000
vt 0.625000 0.762500
vt 0.637500 0.750000
vt 0.625000 0.737500
vt 0.375000 0.750000
vt 0.625000 0.750000
vt 0.628661 0.746339
vt 0.362500 0.500000
vt 0.375000 0.487500
vt 0.375000 0.500000
vt 0.375000 0.512500
vt 0.371339 0.503661
vt 0.375000 0.500000
vt 0.625000 0.512500
vt 0.625000 0.487500
vt 0.637500 0.500000
vt 0.623169 0.500000
vt 0.628661 0.503661
vt 0.137500 0.750000
vt 0.375000 0.987500
vt 0.125000 0.737500
vt 0.375000 0.012500
vt 0.128661 0.746339
vt 0.375000 1.000000
vt 0.375000 0.000000
vt 0.875000 0.737500
vt 0.625000 0.012500
vt 0.625000 0.987500
vt 0.862500 0.750000
vt 0.625000 1.000000
vt 0.625000 0.000000
vt 0.871339 0.746339
vt 0.125000 0.512500
vt 0.375000 0.237500
vt 0.137500 0.500000
vt 0.375000 0.262500
vt 0.128661 0.503661
vt 0.375000 0.250000
vt 0.862500 0.500000
vt 0.625000 0.262500
vt 0.875000 0.512500
vt 0.625000 0.237500
vt 0.871339 0.503661
vt 0.623169 0.250000
vt 0.750000 0.525000
vt 0.400000 0.250000
vt 0.750000 0.575000
vt 0.395833 0.000000
vt 0.395833 1.000000
vt 0.650000 0.575000
vt 0.395833 0.750000
vt 0.650000 0.525000
vt 0.400000 0.500000
vt 0.375000 0.000000
vt 0.125000 0.750000
vt 0.375000 1.000000
vt 0.125000 0.500000
vt 0.375000 0.250000
vt 0.375000 0.750000
vt 0.375000 0.500000
vt 0.837823 0.736475
vt 0.579722 0.000000
vt 0.579722 1.000000
vt 0.856412 0.743683
vt 0.875000 0.749853
vt 0.625000 0.000147
vt 0.870019 0.750000
vt 0.625000 0.995019
vt 0.837823 0.513525
vt 0.579722 0.250000
vt 0.856411 0.507209
vt 0.875000 0.503477
vt 0.625000 0.246523
vt 0.870019 0.500000
vt 0.625000 0.254981
vt 0.662177 0.736475
vt 0.579722 0.750000
vt 0.643588 0.743683
vt 0.602361 0.748188
vt 0.629981 0.750000
vt 0.625000 0.754981
vt 0.662177 0.513525
vt 0.579722 0.500000
vt 0.643588 0.507209
vt 0.629981 0.500000
vt 0.625000 0.495019
vt 0.602361 0.501812
s 1
usemtl phone
f 3/5/1 6/11/2 21/37/3 17/29/4
f 12/20/5 14/23/6 7/13/7 1/1/8
f 6/11/2 3/5/1 4/7/9 9/15/10
f 9/15/10 4/7/9 1/1/8 7/13/7
f 12/20/11 1/1/11 4/8/11 3/6/11 17/28/11 19/32/11 18/30/11 23/42/11 25/46/11 24/44/11 10/17/11 13/21/11
f 14/23/6 12/20/5 13/22/12 16/26/13
f 16/26/13 13/22/12 10/18/14 15/24/15
f 24/45/16 26/49/17 15/24/15 10/18/14
f 17/29/4 21/37/3 22/39/18 19/33/19
f 19/34/19 22/40/18 20/36/20 18/31/21
f 29/54/22 26/48/22 28/52/22 27/50/22 20/35/22 22/41/22 21/38/22 6/12/22 9/16/22 7/13/22 14/23/22 16/27/22 32/61/22 31/59/22 30/56/22
f 32/61/22 16/27/22 15/25/22 26/48/22 29/54/22
f 26/49/17 24/45/16 25/47/23 28/53/24
f 28/53/24 25/47/23 23/43/25 27/51/26
f 18/31/21 20/36/20 27/51/26 23/43/25
f 30/57/27 2/2/27 5/9/27 29/55/27
f 29/55/28 5/9/28 11/19/28 32/62/28
f 11/19/29 8/14/29 31/60/29 32/62/29
f 8/14/30 2/3/30 30/58/30 31/60/30
f 49/91/31 41/78/32 37/70/33 45/85/34
f 36/69/35 50/92/36 46/86/37 35/68/38
f 33/63/39 38/71/40 42/79/41 34/67/42
f 34/66/43 36/69/43 35/68/43 33/64/43
f 34/67/42 42/79/41 50/92/36 36/69/35
f 37/70/33 41/78/32 43/80/44 39/73/45
f 39/73/45 43/80/44 44/81/46 40/74/47
f 40/75/47 44/82/46 42/79/41 38/71/40
f 41/78/32 49/91/31 51/93/48 43/80/44
f 43/80/44 51/93/48 52/94/49 44/83/46
f 44/84/46 52/95/49 50/92/36 42/79/41
f 49/91/31 45/85/34 47/87/50 51/93/48
f 51/93/48 47/87/50 48/88/51 52/96/49
f 52/96/49 48/88/51 46/86/37 50/92/36
f 45/85/34 37/70/33 39/73/45 47/87/50
f 47/87/50 39/73/45 40/76/47 48/89/51
f 48/90/51 40/77/47 38/72/40 46/86/37
f 35/68/38 46/86/37 38/72/40 33/65/39
usemtl screen
f 5/10/22 2/4/22 8/14/22 11/19/22
