# Blender 3.3.21
# www.blender.org
mtllib thumb_drive.mtl
o ThumbDrive
v 0.007000 0.002000 -0.005500
v 0.005000 0.004000 -0.005500
v 0.006732 0.003000 -0.005500
v 0.006000 0.003732 -0.005500
v -0.005000 0.004000 -0.005500
v -0.007000 0.002000 -0.005500
v -0.006000 0.003732 -0.005500
v -0.006732 0.003000 -0.005500
v -0.007000 -0.002000 -0.005500
v -0.005000 -0.004000 -0.005500
v -0.006732 -0.003000 -0.005500
v -0.006000 -0.003732 -0.005500
v 0.005000 -0.004000 -0.005500
v 0.007000 -0.002000 -0.005500
v 0.006000 -0.003732 -0.005500
v 0.006732 -0.003000 -0.005500
v 0.004737 0.002000 -0.039001
v 0.005000 0.004000 -0.036999
v 0.004923 0.003414 -0.038414
v 0.005000 0.001737 -0.039001
v 0.007000 0.002000 -0.036999
v 0.006414 0.001923 -0.038414
v 0.004965 0.001939 -0.039001
v 0.006000 0.003732 -0.036999
v 0.005697 0.003207 -0.038414
v 0.004939 0.001965 -0.039001
v 0.006732 0.003000 -0.036999
v 0.006207 0.002697 -0.038414
v -0.005000 0.001737 -0.039001
v -0.007000 0.002000 -0.036999
v -0.006414 0.001923 -0.038414
v -0.004737 0.002000 -0.039001
v -0.005000 0.004000 -0.036999
v -0.004923 0.003414 -0.038414
v -0.004939 0.001965 -0.039001
v -0.006732 0.003000 -0.036999
v -0.006207 0.002697 -0.038414
v -0.004965 0.001939 -0.039001
v -0.006000 0.003732 -0.036999
v -0.005697 0.003207 -0.038414
v -0.004737 -0.002000 -0.039001
v -0.005000 -0.004000 -0.036999
v -0.004923 -0.003414 -0.038414
v -0.005000 -0.001737 -0.039001
v -0.007000 -0.002000 -0.036999
v -0.006414 -0.001923 -0.038414
v -0.004965 -0.001939 -0.039001
v -0.006000 -0.003732 -0.036999
v -0.005697 -0.003207 -0.038414
v -0.004939 -0.001965 -0.039001
v -0.006732 -0.003000 -0.036999
v -0.006207 -0.002697 -0.038414
v 0.005000 -0.001737 -0.039001
v 0.007000 -0.002000 -0.036999
v 0.006414 -0.001923 -0.038414
v 0.004737 -0.002000 -0.039001
v 0.005000 -0.004000 -0.036999
v 0.004923 -0.003414 -0.038414
v 0.004939 -0.001965 -0.039001
v 0.006732 -0.003000 -0.036999
v 0.006207 -0.002697 -0.038414
v 0.004965 -0.001939 -0.039001
v 0.006000 -0.003732 -0.036999
v 0.005697 -0.003207 -0.038414
v -0.005800 -0.002050 0.007500
v -0.005800 0.000000 0.007500
v -0.005800 -0.002050 -0.007500
v -0.005800 0.000000 -0.007500
v 0.005800 -0.002050 0.007500
v 0.005800 0.000000 0.007500
v 0.005800 -0.002050 -0.007500
v 0.005800 0.000000 -0.007500
v -0.006000 -0.002250 0.007500
v -0.005800 -0.002050 0.007500
v -0.006000 0.002250 0.007500
v -0.005800 0.002050 0.007500
v -0.006000 -0.002250 -0.007500
v -0.005800 -0.002050 -0.007500
v -0.006000 0.002250 -0.007500
v -0.005800 0.002050 -0.007500
v 0.006000 -0.002250 0.007500
v 0.005800 -0.002050 0.007500
v 0.006000 0.002250 0.007500
v 0.005800 0.002050 0.007500
v 0.006000 -0.002250 -0.007500
v 0.005800 -0.002050 -0.007500
v 0.005800 0.002050 -0.007500
v 0.006000 0.002250 -0.007500
v -0.004000 0.002250 0.002000
v -0.004000 0.002250 0.000000
v -0.001550 0.002250 0.000000
v -0.001550 0.002250 0.002000
v 0.001550 0.002250 0.002000
v 0.001550 0.002250 0.000000
v 0.004000 0.002250 0.000000
v 0.004000 0.002250 0.002000
v -0.004000 0.002050 0.002000
v -0.004000 0.002050 0.000000
v -0.001550 0.002050 0.000000
v -0.001550 0.002050 0.002000
v 0.001550 0.002050 0.002000
v 0.001550 0.002050 0.000000
v 0.004000 0.002050 0.000000
v 0.004000 0.002050 0.002000
vn -0.0273 -0.2078 -0.9778
vn -0.1493 -0.2853 -0.9467
vn -0.2853 -0.1493 -0.9467
vn -0.2077 -0.0273 -0.9778
vn -0.2077 0.0273 -0.9778
vn -0.2853 0.1493 -0.9467
vn -0.1493 0.2853 -0.9467
vn -0.0273 0.2078 -0.9778
vn 0.0273 0.2078 -0.9778
vn 0.1493 0.2853 -0.9467
vn 0.2853 0.1493 -0.9467
vn 0.2077 0.0273 -0.9778
vn 0.2077 -0.0273 -0.9778
vn 0.2853 -0.1493 -0.9467
vn 0.1493 -0.2853 -0.9467
vn 0.0273 -0.2078 -0.9778
vn 0.8494 0.4904 -0.1948
vn 0.6557 0.3786 0.6532
vn 0.7280 0.0958 0.6789
vn 0.9727 0.1281 -0.1933
vn 0.0959 -0.7280 0.6789
vn 0.3786 -0.6557 0.6532
vn 0.6557 -0.3786 0.6532
vn 0.7280 -0.0958 0.6789
vn 0.3786 0.6557 0.6532
vn 0.0959 0.7280 0.6789
vn -0.0959 0.7280 0.6789
vn -0.3786 0.6557 0.6532
vn -0.6557 0.3786 0.6532
vn -0.7280 0.0958 0.6789
vn -0.7280 -0.0958 0.6789
vn -0.6557 -0.3786 0.6532
vn -0.3786 -0.6557 0.6532
vn -0.0959 -0.7280 0.6789
vn 0.1281 0.9727 -0.1934
vn -0.1281 0.9727 -0.1934
vn -0.8494 0.4904 -0.1948
vn -0.9727 0.1281 -0.1933
vn 0.9727 -0.1281 -0.1933
vn -0.4904 0.8494 -0.1948
vn -0.1281 -0.9727 -0.1934
vn -0.4904 -0.8494 -0.1948
vn -0.9727 -0.1281 -0.1933
vn 0.1281 -0.9727 -0.1934
vn 0.8494 -0.4904 -0.1948
vn -0.8494 -0.4904 -0.1948
vn 0.4904 0.8494 -0.1948
vn 0.4904 -0.8494 -0.1948
vn 0.0940 0.7145 -0.6932
vn 0.3643 0.6310 -0.6849
vn 0.6310 0.3643 -0.6849
vn 0.7146 0.0941 -0.6932
vn -0.3643 0.6310 -0.6849
vn -0.0940 0.7145 -0.6932
vn -0.6310 0.3643 -0.6849
vn -0.7146 0.0941 -0.6932
vn -0.0940 -0.7145 -0.6932
vn -0.3643 -0.6310 -0.6849
vn -0.6310 -0.3643 -0.6849
vn -0.7146 -0.0941 -0.6932
vn 0.3643 -0.6310 -0.6849
vn 0.0940 -0.7145 -0.6932
vn 0.6310 -0.3643 -0.6849
vn 0.7146 -0.0941 -0.6932
vn -1.0000 -0.0000 -0.0000
vn -0.0000 -0.0000 -1.0000
vn 1.0000 -0.0000 -0.0000
vn -0.0000 -0.0000 1.0000
vn -0.0000 -1.0000 -0.0000
vn -0.0000 1.0000 -0.0000
vt 0.562500 0.750000
vt 0.625000 0.785714
vt 0.660714 0.750000
vt 0.593750 0.754785
vt 0.593750 0.750000
vt 0.616627 0.767857
vt 0.642857 0.750000
vt 0.625000 0.964286
vt 0.839286 0.750000
vt 0.562500 1.000000
vt 0.562500 0.000000
vt 0.616627 0.982143
vt 0.625000 0.000000
vt 0.875000 0.750000
vt 0.593750 0.995215
vt 0.593750 0.000000
vt 0.437500 1.000000
vt 0.437500 0.000000
vt 0.375000 0.964286
vt 0.160714 0.750000
vt 0.406250 0.995215
vt 0.125000 0.750000
vt 0.375000 0.000000
vt 0.383373 0.982143
vt 0.142857 0.750000
vt 0.375000 0.785714
vt 0.339286 0.750000
vt 0.437500 0.750000
vt 0.383373 0.767857
vt 0.357143 0.750000
vt 0.406250 0.754785
vt 0.406250 0.750000
vt 0.562500 0.459584
vt 0.660714 0.514925
vt 0.624376 0.465616
vt 0.659384 0.500000
vt 0.625000 0.462909
vt 0.662091 0.500000
vt 0.554272 0.464286
vt 0.562500 0.514925
vt 0.564828 0.499644
vt 0.564828 0.500000
vt 0.560090 0.500000
vt 0.560591 0.463656
vt 0.642857 0.514925
vt 0.617896 0.479435
vt 0.645564 0.500000
vt 0.613158 0.484125
vt 0.635412 0.500000
vt 0.561398 0.463195
vt 0.593750 0.514925
vt 0.597218 0.493233
vt 0.601195 0.500000
vt 0.589012 0.495941
vt 0.589012 0.500000
vt 0.554272 0.285714
vt 0.562500 0.235075
vt 0.564828 0.250356
vt 0.564828 0.250000
vt 0.560090 0.250000
vt 0.562500 0.290416
vt 0.839286 0.514925
vt 0.624376 0.284384
vt 0.841946 0.500000
vt 0.625000 0.287091
vt 0.837909 0.500000
vt 0.561398 0.286805
vt 0.593750 0.235075
vt 0.597218 0.256767
vt 0.598488 0.250000
vt 0.589012 0.254059
vt 0.589012 0.250000
vt 0.560591 0.286344
vt 0.875000 0.514925
vt 0.625000 0.235075
vt 0.617896 0.270565
vt 0.869585 0.500000
vt 0.613158 0.265875
vt 0.620262 0.250000
vt 0.437500 0.290416
vt 0.160714 0.514925
vt 0.375624 0.284384
vt 0.159384 0.500000
vt 0.375000 0.287091
vt 0.162091 0.500000
vt 0.445728 0.285714
vt 0.437500 0.235075
vt 0.435172 0.250356
vt 0.432844 0.250000
vt 0.439910 0.250000
vt 0.439409 0.286344
vt 0.142857 0.514925
vt 0.382104 0.270565
vt 0.145564 0.500000
vt 0.386842 0.265875
vt 0.140150 0.500000
vt 0.438602 0.286805
vt 0.125000 0.514925
vt 0.375000 0.235075
vt 0.402782 0.256767
vt 0.127707 0.500000
vt 0.410988 0.254059
vt 0.384476 0.250000
vt 0.445728 0.464286
vt 0.437500 0.514925
vt 0.435172 0.499644
vt 0.435172 0.500000
vt 0.439910 0.500000
vt 0.437500 0.459584
vt 0.339286 0.514925
vt 0.375624 0.465616
vt 0.340616 0.500000
vt 0.375000 0.462909
vt 0.337909 0.500000
vt 0.438602 0.463195
vt 0.406250 0.514925
vt 0.402782 0.493233
vt 0.398805 0.500000
vt 0.410988 0.495941
vt 0.410988 0.500000
vt 0.439409 0.463656
vt 0.357143 0.514925
vt 0.382104 0.479436
vt 0.354436 0.500000
vt 0.386842 0.484125
vt 0.364588 0.500000
vt 0.375000 0.000000
vt 0.375000 1.000000
vt 0.125000 0.750000
vt 0.625000 0.000000
vt 0.625000 1.000000
vt 0.875000 0.750000
vt 0.375000 0.250000
vt 0.125000 0.500000
vt 0.625000 0.250000
vt 0.875000 0.500000
vt 0.375000 0.750000
vt 0.625000 0.750000
vt 0.375000 0.500000
vt 0.625000 0.500000
vt 0.375000 0.000000
vt 0.375000 1.000000
vt 0.125000 0.750000
vt 0.386111 0.995833
vt 0.375000 0.000000
vt 0.125000 0.750000
vt 0.625000 0.000000
vt 0.625000 1.000000
vt 0.875000 0.750000
vt 0.613889 0.995833
vt 0.625000 0.000000
vt 0.875000 0.750000
vt 0.375000 0.250000
vt 0.125000 0.500000
vt 0.386111 0.254167
vt 0.375000 0.250000
vt 0.125000 0.500000
vt 0.625000 0.250000
vt 0.875000 0.500000
vt 0.613889 0.254167
vt 0.625000 0.250000
vt 0.875000 0.500000
vt 0.375000 0.750000
vt 0.386111 0.754167
vt 0.375000 0.750000
vt 0.625000 0.750000
vt 0.613889 0.754167
vt 0.625000 0.750000
vt 0.375000 0.500000
vt 0.386111 0.495833
vt 0.375000 0.500000
vt 0.613889 0.495833
vt 0.625000 0.500000
vt 0.625000 0.500000
vt 0.833333 0.658333
vt 0.531250 0.000000
vt 0.531250 1.000000
vt 0.833333 0.625000
vt 0.531250 0.250000
vt 0.782292 0.625000
vt 0.531250 0.500000
vt 0.782292 0.658333
vt 0.531250 0.750000
vt 0.717708 0.658333
vt 0.531250 0.000000
vt 0.531250 1.000000
vt 0.717708 0.625000
vt 0.531250 0.250000
vt 0.666667 0.625000
vt 0.531250 0.500000
vt 0.666667 0.658333
vt 0.531250 0.750000
vt 0.836207 0.658333
vt 0.506250 0.000000
vt 0.506250 1.000000
vt 0.836207 0.625000
vt 0.506250 0.250000
vt 0.783405 0.625000
vt 0.506250 0.500000
vt 0.783405 0.658333
vt 0.506250 0.750000
vt 0.716595 0.658333
vt 0.506250 0.000000
vt 0.506250 1.000000
vt 0.716595 0.625000
vt 0.506250 0.250000
vt 0.663793 0.625000
vt 0.506250 0.500000
vt 0.663793 0.658333
vt 0.506250 0.750000
s 1
usemtl plastic
f 41/80/1 47/91/2 50/97/3 44/86/4 29/56/5 35/67/6 38/73/7 32/61/8 17/33/9 23/44/10 26/50/11 20/39/12 53/104/13 59/115/14 62/121/15 56/109/16
f 27/51/17 3/5/18 1/1/19 21/40/20
f 13/26/21 15/29/22 16/31/23 14/28/24 1/1/19 3/4/18 4/6/25 2/2/26 5/8/27 7/12/28 8/15/29 6/10/30 9/17/31 11/21/32 12/24/33 10/19/34
f 18/34/35 33/62/36 5/9/27 2/3/26
f 8/16/29 36/68/37 30/57/38 6/11/30
f 54/105/39 21/40/20 1/1/19 14/28/24
f 7/13/28 39/75/40 36/68/37 8/16/29
f 42/81/41 10/20/34 12/25/33 48/92/42
f 9/18/31 6/11/30 30/57/38 45/87/43
f 5/9/27 33/62/36 39/74/40 7/14/28
f 42/81/41 57/110/44 13/27/21 10/20/34
f 16/32/23 60/116/45 54/105/39 14/28/24
f 48/92/42 12/25/33 11/22/32 51/98/46
f 24/45/47 4/7/25 3/5/18 27/51/17
f 15/30/22 63/122/48 60/116/45 16/32/23
f 13/27/21 57/110/44 63/122/48 15/30/22
f 51/99/46 11/23/32 9/18/31 45/87/43
f 23/44/10 17/33/9 19/35/49 25/46/50
f 25/47/50 19/36/49 18/34/35 24/45/47
f 26/50/11 23/44/10 25/48/50 28/52/51
f 28/53/51 25/49/50 24/45/47 27/51/17
f 20/39/12 26/50/11 28/54/51 22/41/52
f 22/42/52 28/55/51 27/51/17 21/40/20
f 32/61/8 38/73/7 40/76/53 34/63/54
f 34/64/54 40/77/53 39/74/40 33/62/36
f 38/73/7 35/67/6 37/69/55 40/78/53
f 40/79/53 37/70/55 36/68/37 39/75/40
f 35/67/6 29/56/5 31/58/56 37/71/55
f 37/72/55 31/59/56 30/57/38 36/68/37
f 17/33/9 32/61/8 34/65/54 19/37/49
f 19/38/49 34/66/54 33/62/36 18/34/35
f 47/91/2 41/80/1 43/82/57 49/93/58
f 49/94/58 43/83/57 42/81/41 48/92/42
f 50/97/3 47/91/2 49/95/58 52/100/59
f 52/101/59 49/96/58 48/92/42 51/98/46
f 44/86/4 50/97/3 52/102/59 46/88/60
f 46/89/60 52/103/59 51/99/46 45/87/43
f 29/56/5 44/86/4 46/90/60 31/60/56
f 31/60/56 46/90/60 45/87/43 30/57/38
f 56/109/16 62/121/15 64/123/61 58/111/62
f 58/112/62 64/124/61 63/122/48 57/110/44
f 62/121/15 59/115/14 61/117/63 64/125/61
f 64/126/61 61/118/63 60/116/45 63/122/48
f 59/115/14 53/104/13 55/106/64 61/119/63
f 61/120/63 55/107/64 54/105/39 60/116/45
f 41/80/1 56/109/16 58/113/62 43/84/57
f 43/85/57 58/114/62 57/110/44 42/81/41
f 53/104/13 20/39/12 22/43/52 55/108/64
f 55/108/64 22/43/52 21/40/20 54/105/39
f 18/34/35 2/3/26 4/7/25 24/45/47
s 0
usemtl metal
f 73/141/65 75/147/65 79/158/65 77/153/65
f 87/172/66 88/174/66 85/169/66 86/170/66
f 86/170/66 85/169/66 77/153/66 79/158/66 88/174/66 87/172/66 80/160/66 78/155/66
f 85/169/67 88/174/67 83/166/67 81/163/67
f 74/144/68 76/150/68 75/148/68 73/142/68
f 82/164/68 74/144/68 73/142/68 81/163/68 83/166/68 75/148/68 76/150/68 84/167/68
f 77/154/69 85/169/69 81/163/69 73/143/69
f 89/175/70 75/149/70 83/166/70 96/191/70 93/184/70 92/182/70
f 83/166/70 88/174/70 79/159/70 75/149/70 89/175/70 90/178/70 91/180/70 92/182/70 93/184/70 94/187/70 95/189/70 96/191/70
f 76/151/67 74/145/67 78/156/67 80/161/67
f 84/168/65 87/173/65 86/171/65 82/165/65
f 78/157/70 74/146/70 82/165/70 86/171/70
f 97/193/69 76/152/69 80/162/69 98/196/69
f 103/207/69 87/173/69 84/168/69 104/209/69
f 84/168/69 76/152/69 97/193/69 100/200/69 99/198/69 98/196/69 80/162/69 87/173/69 103/207/69 102/205/69 101/202/69 104/209/69
f 102/206/67 94/188/67 93/185/67 101/203/67
f 103/208/68 95/190/68 94/188/68 102/206/68
f 96/192/65 95/190/65 103/208/65 104/210/65
f 93/186/66 96/192/66 104/210/66 101/204/66
f 98/197/67 90/179/67 89/176/67 97/194/67
f 99/199/68 91/181/68 90/179/68 98/197/68
f 92/183/65 91/181/65 99/199/65 100/201/65
f 89/177/66 92/183/66 100/201/66 97/195/66
usemtl red
f 65/127/65 66/130/65 68/135/65 67/133/65
f 67/133/66 68/135/66 72/140/66 71/139/66
f 71/139/67 72/140/67 70/138/67 69/137/67
f 69/137/68 70/138/68 66/131/68 65/128/68
f 67/134/69 71/139/69 69/137/69 65/129/69
f 72/140/70 68/136/70 66/132/70 70/138/70
